<?xml version="1.0" encoding="UTF-8" standalone="no"?>
<!-- Created with Inkscape (http://www.inkscape.org/) -->

<svg
   xmlns:dc="http://purl.org/dc/elements/1.1/"
   xmlns:cc="http://creativecommons.org/ns#"
   xmlns:rdf="http://www.w3.org/1999/02/22-rdf-syntax-ns#"
   xmlns:svg="http://www.w3.org/2000/svg"
   xmlns="http://www.w3.org/2000/svg"
   xmlns:sodipodi="http://sodipodi.sourceforge.net/DTD/sodipodi-0.dtd"
   xmlns:inkscape="http://www.inkscape.org/namespaces/inkscape"
   width="210mm"
   height="297mm"
   viewBox="0 0 744.09448819 1052.3622047"
   id="svg3366"
   version="1.1"
   inkscape:version="0.91 r13725"
   sodipodi:docname="cara_pedro_indio.svg">
  <defs
     id="defs3368" />
  <sodipodi:namedview
     id="base"
     pagecolor="#ffffff"
     bordercolor="#666666"
     borderopacity="1.0"
     inkscape:pageopacity="0.0"
     inkscape:pageshadow="2"
     inkscape:zoom="0.35"
     inkscape:cx="375"
     inkscape:cy="520"
     inkscape:document-units="px"
     inkscape:current-layer="layer1"
     showgrid="false"
     inkscape:window-width="1536"
     inkscape:window-height="801"
     inkscape:window-x="-8"
     inkscape:window-y="-8"
     inkscape:window-maximized="1" />
  <metadata
     id="metadata3371">
    <rdf:RDF>
      <cc:Work
         rdf:about="">
        <dc:format>image/svg+xml</dc:format>
        <dc:type
           rdf:resource="http://purl.org/dc/dcmitype/StillImage" />
        <dc:title></dc:title>
      </cc:Work>
    </rdf:RDF>
  </metadata>
  <g
     inkscape:label="Capa 1"
     inkscape:groupmode="layer"
     id="layer1">
    <g
       id="g3385"
       transform="matrix(2.0566257,0,0,2.0566257,-276.37248,-283.3583)">
      <path
         style="fill:#eea69b"
         d="m 299.5536,607.63004 c -0.4249,-0.6875 -2.17353,-1.25 -3.88585,-1.25 -3.98567,0 -10.48915,-3.34024 -10.48915,-5.3873 0,-0.8652 -3.02715,-4.56265 -6.727,-8.21654 -5.33324,-5.26699 -6.86714,-7.68831 -7.40342,-11.68657 -0.49523,-3.69219 -2.04171,-6.43427 -5.77301,-10.23619 -2.80311,-2.85616 -5.09657,-5.68114 -5.09657,-6.27773 0,-0.59658 -1.40625,-2.92838 -3.125,-5.18178 -1.71875,-2.2534 -3.125,-5.72406 -3.125,-7.71259 0,-2.24034 -1.18861,-4.73215 -3.125,-6.5513 -1.71875,-1.61469 -3.125,-3.61261 -3.125,-4.43984 0,-0.82722 -0.81618,-2.18142 -1.81374,-3.00931 -0.99755,-0.8279 -2.18959,-4.13115 -2.64898,-7.34056 -0.45938,-3.20942 -1.82646,-6.96029 -3.03794,-8.33529 -1.21148,-1.375 -2.57133,-4.46875 -3.02188,-6.875 -1.79124,-9.56635 -2.31557,-11.2245 -3.98843,-12.61285 -0.98533,-0.81775 -1.73903,-3.74176 -1.73903,-6.74664 0,-3.53621 -0.89674,-6.44339 -2.6912,-8.72467 -1.48016,-1.88171 -3.10567,-5.4732 -3.61224,-7.98108 -0.50657,-2.50786 -1.82529,-8.21601 -2.93049,-12.68476 -1.1052,-4.46875 -2.30291,-9.67188 -2.66158,-11.5625 -0.56114,-2.9579 -1.25241,-3.4375 -4.95461,-3.4375 -5.25069,0 -8.11424,-2.81768 -13.19349,-12.98216 -3.17423,-6.35219 -3.71226,-8.86915 -3.74729,-17.52999 -0.0622,-15.38724 -1.85982,-26.34282 -5.4484,-33.20586 -1.77405,-3.39281 -3.59138,-9.42861 -4.03849,-13.41288 -0.44712,-3.98426 -1.19746,-7.80661 -1.66742,-8.49411 -0.46996,-0.6875 -1.60757,-3.63831 -2.52801,-6.55736 -2.24824,-7.12995 0.0714,-9.95238 8.31546,-10.11785 3.15692,-0.0634 6.04419,-0.41955 6.41617,-0.79154 0.67402,-0.67401 1.99113,-40.65411 1.73066,-52.53325 -0.0794,-3.62262 1.1573,-10.19107 2.94192,-15.625 1.69343,-5.15625 4.0006,-12.1875 5.12704,-15.625 1.90712,-5.81984 8.32557,-20.78755 10.22791,-23.85133 4.26558,-6.86982 10.85564,-15.41557 13.65677,-17.70958 1.88776,-1.54601 5.40104,-4.40318 7.80729,-6.34927 4.02354,-3.25411 12.00172,-7.98457 24.17394,-14.33333 2.63941,-1.37666 5.3422,-3.69535 6.00619,-5.15265 1.5486,-3.39881 8.5762,-8.22884 11.9728,-8.22884 2.17605,0 15.64885,-6.66766 22.84707,-11.30696 5.66109,-3.64862 17.68732,-7.82603 18.68549,-6.49056 1.96257,2.62579 11.16516,8.77361 14.43951,9.64636 2.0625,0.54974 6.82747,1.06178 10.58884,1.13785 l 6.83882,0.13831 2.06364,5.58494 c 2.30123,6.22794 2.56177,6.41897 12.78124,9.3708 6.42931,1.85706 7.69145,2.77854 10.88549,7.94744 1.98712,3.21575 4.05823,6.26355 4.60246,6.77288 0.54424,0.50933 7.0881,6.48482 14.54192,13.27887 16.32408,14.87914 20.80974,21.08713 20.81724,28.81025 0.004,3.54324 1.07157,7.34217 2.9874,10.625 3.86353,6.62027 8.32384,22.91293 7.44667,27.20133 -0.40731,1.9914 0.15375,4.76919 1.38863,6.875 2.06947,3.529 1.7379,9.98558 -1.28969,25.11341 -0.45245,2.26075 -0.1681,5.64538 0.63773,7.5908 0.79983,1.93098 1.65058,9.53 1.89056,16.88673 0.23997,7.35671 0.99645,14.06585 1.68105,14.9092 3.20601,3.9494 3.95444,28.76997 0.96705,32.071 -1.60296,1.77125 -2.67078,12.9939 -3.12623,32.85635 -0.0428,1.86671 -1.68036,5.24171 -3.63901,7.5 -1.96771,2.26875 -3.90319,6.28365 -4.3255,8.97275 -0.42037,2.6767 -1.91159,6.08796 -3.31381,7.58056 -1.40223,1.4926 -2.5495,3.30483 -2.5495,4.02718 0,0.72235 -1.05378,2.65485 -2.34173,4.29443 -1.28795,1.63959 -2.75718,6.07483 -3.26496,9.85608 -0.50779,3.78125 -1.34304,7.4375 -1.85612,8.125 -0.51309,0.6875 -1.81523,3.90138 -2.89364,7.14194 -1.07841,3.24057 -3.56596,8.30307 -5.52788,11.25 -4.81536,7.23302 -6.29843,10.69617 -7.11231,16.60806 -1.39815,10.15602 -5.04697,20.71467 -9.50336,27.5 -1.35459,2.0625 -3.07289,5.15522 -3.81845,6.87271 -0.74555,1.71749 -2.18655,4.04095 -3.2022,5.16323 -1.85199,2.04642 -4.52973,6.76342 -9.90239,17.44361 -4.78497,9.51195 -30.21172,33.64545 -35.44844,33.64545 -1.36453,0 -2.82862,0.5625 -3.25352,1.25 -0.4307,0.69689 -6.23839,1.25 -13.125,1.25 -6.88661,0 -12.6943,0.55311 -13.125,1.25 -0.4249,0.6875 -1.83115,1.25 -3.125,1.25 -1.29385,0 -2.7001,-0.5625 -3.125,-1.25 z m 40.625,-300.625 c 0,-1.03125 -0.91262,-1.875 -2.02805,-1.875 -1.661,0 -1.74641,0.33936 -0.47195,1.875 0.85586,1.03125 1.76849,1.875 2.02805,1.875 0.25957,0 0.47195,-0.84375 0.47195,-1.875 z"
         id="path3399"
         inkscape:connector-curvature="0" />
      <path
         style="fill:#dd8a76"
         d="m 297.6786,606.9009 c -1.71875,-0.9537 -4.01096,-1.7423 -5.09379,-1.75244 -1.08284,-0.01 -2.86465,-1.0028 -3.95957,-2.20592 -1.09493,-1.20313 -5.05609,-5.5625 -8.80259,-9.6875 -4.69529,-5.16966 -7.07684,-8.96515 -7.66481,-12.21545 -0.52036,-2.87654 -2.90064,-7.1066 -6.10363,-10.84692 -7.06072,-8.24523 -10.87561,-14.62175 -10.87561,-18.1784 0,-1.61833 -1.33328,-4.53246 -2.96285,-6.47582 -4.78296,-5.70401 -8.28715,-13.18396 -8.28715,-17.68953 0,-2.48256 -0.93673,-5.03979 -2.29619,-6.26852 -1.2629,-1.14145 -3.01255,-5.16911 -3.88811,-8.95036 -0.87556,-3.78125 -2.28859,-8 -3.14008,-9.375 -0.85149,-1.375 -1.84782,-5.1947 -2.21406,-8.48822 -0.36625,-3.29353 -1.64875,-7.07427 -2.85002,-8.40165 -1.20126,-1.32738 -2.61204,-4.53893 -3.13507,-7.13678 -0.9365,-4.65159 -4.43349,-19.25756 -6.06479,-25.33105 -0.65039,-2.42145 -1.90447,-3.28159 -5.67907,-3.89512 -8.77648,-1.42658 -13.32926,-10.11351 -14.67321,-27.99718 -1.68855,-22.46928 -3.04415,-29.92562 -6.51844,-35.85404 -2.4273,-4.14187 -3.29096,-7.34345 -3.29096,-12.1995 0,-5.27412 -0.75992,-7.70988 -3.81993,-12.24396 -4.48014,-6.63831 -4.05999,-9.05081 1.5932,-9.14805 2.25595,-0.0387 6.02406,-0.74194 8.37357,-1.5625 l 4.27184,-1.49195 0.56976,-24.375 c 0.31336,-13.40625 0.48094,-26.625 0.37239,-29.375 -0.10855,-2.75 0.46937,-7.25 1.28427,-10 9.65965,-32.59798 20.11718,-53.56142 31.05411,-62.25189 2.76739,-2.19896 6.8255,-5.40436 9.01804,-7.12311 3.7149,-2.91215 10.96418,-7.29887 20.78904,-12.57997 2.27221,-1.22137 6.53027,-4.79678 9.46236,-7.94535 4.13291,-4.43806 6.2079,-5.72468 9.23244,-5.72468 2.14575,0 4.20864,-0.49718 4.5842,-1.10485 0.37556,-0.60767 3.08063,-2.2984 6.01127,-3.75719 5.67869,-2.82668 8.36978,-4.37353 13.61357,-7.82514 5.47548,-3.60411 15.69758,-6.49769 17.57737,-4.97564 0.90063,0.72923 3.68051,3.03294 6.17752,5.11935 2.497,2.08641 5.97944,3.79347 7.73873,3.79347 1.75929,0 3.58921,0.63184 4.06649,1.4041 0.55375,0.89599 3.05698,1.14482 6.91745,0.6876 l 6.04966,-0.71649 1.281,4.62489 c 1.91502,6.91401 2.67068,7.59734 10.72003,9.69393 8.17814,2.13013 12.13774,5.1554 15.61126,11.92753 1.26848,2.4731 3.65198,5.37825 5.29666,6.45588 1.64466,1.07763 5.1927,4.12062 7.8845,6.76219 2.69181,2.64158 7.53411,6.94988 10.76066,9.57399 8.3067,6.75573 13.50474,15.28708 13.5236,22.19581 0.01,3.53469 1.11103,7.43247 3.06668,10.85298 3.92589,6.86656 8.22556,22.45998 7.35931,26.68967 -0.37528,1.83238 0.20151,4.96464 1.30835,7.10503 2.16027,4.17753 1.72004,17.20014 -0.75485,22.32869 -0.71949,1.49095 -0.92347,4.5847 -0.45331,6.875 0.47015,2.29031 1.38917,10.82585 2.04227,18.96786 0.75258,9.382 1.87031,15.77859 3.05198,17.46564 1.02549,1.46407 1.86451,4.54254 1.86451,6.84101 0,2.29848 0.53163,5.1724 1.1814,6.3865 0.64976,1.2141 0.85706,5.34984 0.46068,9.19054 -0.563,5.45487 -1.1227,6.82882 -2.55755,6.27821 -3.28447,-1.26036 -4.01797,2.49783 -3.95357,20.25675 0.0599,16.5051 -0.0881,17.59494 -2.67227,19.6875 -1.50462,1.21835 -3.51709,2.21519 -4.47217,2.21519 -1.27191,0 -1.73652,1.84269 -1.73652,6.88724 0,5.34037 -0.56149,7.368 -2.5,9.0278 -1.375,1.17731 -2.5,3.0647 -2.5,4.19418 0,1.1295 -1.05378,3.39512 -2.34173,5.0347 -1.28795,1.63959 -2.75718,6.07483 -3.26496,9.85608 -0.50779,3.78125 -1.34945,7.4375 -1.87037,8.125 -0.52093,0.6875 -1.6623,3.5 -2.53639,6.25 -0.87409,2.75 -3.78309,8.65625 -6.46445,13.125 -2.68135,4.46875 -5.14558,9.53125 -5.47604,11.25 -3.21762,16.73474 -5.89362,24.85551 -10.50362,31.875 -1.35454,2.0625 -3.34429,5.4375 -4.42168,7.5 -1.07738,2.0625 -3.32577,6 -4.99642,8.75 -1.67064,2.75 -4.68858,8.1074 -6.7065,11.90535 -3.70465,6.97251 -16.36347,20.75919 -24.90602,27.12507 -2.55025,1.90046 -5.00127,3.96133 -5.44669,4.57974 -1.89647,2.63293 -11.21597,4.96792 -21.69013,5.43443 -6.1875,0.27558 -11.78438,1.02517 -12.4375,1.66575 -1.59373,1.56308 -4.40709,1.28322 -8.1875,-0.81448 z m 7.5,-59.20087 c 0,-1.25535 1.33758,-3.15888 2.9724,-4.23005 3.66292,-2.40004 5.51831,-11.78748 3.09629,-15.66577 -2.24851,-3.60043 -7.41866,-5.77258 -8.74875,-3.67563 -1.20766,1.90395 -1.44667,25.20806 -0.27059,26.38415 1.27408,1.27409 2.95065,-0.3241 2.95065,-2.8127 z m 38.75,-13.15589 c 0,-1.67556 -0.65279,-4.47919 -1.45065,-6.23029 -1.6688,-3.66262 -6.02843,-4.17904 -11.04935,-1.30881 -1.71875,0.98252 -4.6317,1.80635 -6.47321,1.8307 -4.79808,0.0635 -7.27865,2.97394 -6.151,7.21695 0.6315,2.37619 1.8654,3.58275 3.95836,3.8707 1.67246,0.23009 3.54476,0.90274 4.16064,1.49479 0.61588,0.59205 2.64431,0.77153 4.50761,0.39888 2.53576,-0.50716 3.61269,-0.0971 4.28191,1.63021 0.80231,2.07091 1.26981,1.88878 4.55489,-1.77445 2.01344,-2.24522 3.6608,-5.45313 3.6608,-7.12868 z m -18.01272,-31.9141 c 2.95258,0 4.58322,-0.76323 5.57002,-2.60706 0.76739,-1.43388 1.03654,-2.96576 0.59811,-3.4042 -0.87344,-0.87343 -28.23666,-1.4889 -29.66332,-0.6672 -0.4856,0.27968 -0.54998,1.3761 -0.14308,2.43649 0.51819,1.35038 1.67318,1.6937 3.8554,1.14598 2.26298,-0.56796 3.80074,-0.0465 5.61933,1.90552 1.90705,2.04697 3.39571,2.50908 6.24626,1.93897 2.05837,-0.41168 5.62115,-0.7485 7.91728,-0.7485 z m 12.6708,-5.75859 c -0.44014,-0.44013 -1.79313,-0.41926 -3.00664,0.0464 -1.87139,0.71811 -1.92861,1.01832 -0.37685,1.97736 1.91626,1.18432 4.84175,-0.56551 3.38349,-2.02377 z M 326.60951,445.0558 c -0.24424,-0.99042 -0.3952,-4.46321 -0.33546,-7.71731 0.11375,-6.19831 -1.53475,-12.20845 -3.34869,-12.20845 -0.79497,0 -1.1256,19.83339 -0.37139,22.27915 0.4342,1.40805 4.41367,-0.9012 4.05554,-2.35339 z m 2.5297,-94.87707 c 5.98279,4.72912 6.66553,4.9507 15.21414,4.93755 4.92264,-0.007 11.05962,-0.36241 13.63775,-0.78855 4.56068,-0.75383 4.6875,-0.91868 4.6875,-6.09248 0,-4.33905 0.59447,-5.7072 3.23025,-7.43422 3.11698,-2.04233 3.1524,-2.20256 1.01041,-4.56943 -2.07251,-2.2901 -2.08417,-2.68252 -0.17581,-5.91314 2.00817,-3.39956 1.96854,-3.52953 -2.26041,-7.41072 -2.36744,-2.17276 -4.30444,-4.44006 -4.30444,-5.03844 0,-0.59839 -1.44271,-1.74531 -3.20603,-2.54874 -2.41634,-1.10096 -3.01091,-2.07548 -2.4139,-3.95652 0.50267,-1.58373 -0.14286,-3.6844 -1.76646,-5.74848 -2.0806,-2.64505 -2.29671,-3.74201 -1.15685,-5.87186 1.00766,-1.88285 1.01756,-2.74722 0.0353,-3.07467 -2.9332,-0.97771 -7.74201,-5.56805 -7.74201,-7.39022 0,-1.40288 -0.8087,-1.71682 -3.00345,-1.16597 -1.77311,0.44502 -5.18079,-0.22102 -8.31874,-1.62592 -2.92341,-1.30885 -5.98842,-2.12143 -6.81112,-1.80572 -0.82272,0.3157 -3.34507,3.04205 -5.60523,6.05855 -3.98917,5.32408 -4.27804,5.46772 -9.87293,4.9094 -3.16994,-0.31632 -9.84166,-0.84471 -14.82603,-1.17419 -8.52082,-0.56324 -9.0625,-0.44458 -9.0625,1.98519 0,1.42134 0.64812,3.79526 1.44027,5.27541 1.74779,3.26578 4.43279,18.13792 5.57765,30.89448 0.46276,5.15625 1.1951,10.3601 1.62742,11.5641 0.43231,1.20401 4.71084,4.07081 9.50784,6.37069 l 8.72182,4.18156 4.78587,-4.75949 4.78587,-4.75949 6.26387,4.95132 z m 44.78939,-11.84991 c 0,-0.30318 -0.5625,-0.89888 -1.25,-1.32378 -0.6875,-0.4249 -1.25,-0.17685 -1.25,0.55122 0,0.72808 0.5625,1.32378 1.25,1.32378 0.6875,0 1.25,-0.24805 1.25,-0.55122 z"
         id="path3397"
         inkscape:connector-curvature="0" />
      <path
         style="fill:#a65a4f"
         d="m 299.62719,606.96984 c -1.33453,-1.01189 -3.78994,-1.8398 -5.45647,-1.8398 -1.8452,0 -4.31794,-1.51345 -6.32359,-3.87035 -1.81144,-2.1287 -5.88274,-6.57283 -9.04733,-9.87582 -3.94581,-4.11842 -5.9888,-7.45364 -6.50168,-10.61419 -0.43333,-2.67028 -2.74506,-7.04055 -5.49621,-10.39043 -6.7908,-8.26868 -11.62331,-16.19174 -11.62331,-19.05676 0,-1.3589 -2.30366,-5.84559 -5.11925,-9.97041 -3.58103,-5.24623 -5.1957,-8.98724 -5.3737,-12.45031 -0.1486,-2.89109 -1.3036,-6.13544 -2.77636,-7.79867 -1.38705,-1.56643 -3.24978,-5.94181 -4.13941,-9.72306 -0.88962,-3.78125 -2.3991,-8.12084 -3.35439,-9.64352 -0.95529,-1.52269 -1.73899,-4.61644 -1.74156,-6.875 -0.003,-2.25857 -1.2185,-6.07523 -2.70206,-8.48148 -1.48357,-2.40625 -3.10697,-6.34375 -3.60757,-8.75 -0.5006,-2.40625 -1.81443,-8.03125 -2.91963,-12.5 -1.1052,-4.46875 -2.30076,-9.66331 -2.6568,-11.54346 -0.4658,-2.4598 -1.60601,-3.63166 -4.06581,-4.17869 -1.88015,-0.41811 -4.37491,-1.01822 -5.5439,-1.33356 -2.74106,-0.73943 -7.24956,-8.03 -7.24956,-11.72307 0,-2.74851 0.0933,-2.77424 2.42123,-0.66751 4.79664,4.3409 6.91026,-0.95602 2.57877,-6.46262 -1.375,-1.74803 -2.5,-4.22738 -2.5,-5.50966 0,-1.28229 -1.0465,-3.37793 -2.32554,-4.65698 -3.33572,-3.33571 -5.57331,-16.75794 -4.08621,-24.51114 1.91426,-9.98026 -0.95965,-23.13715 -5.42852,-24.85202 -2.4454,-0.93839 -2.46559,-5.04385 -0.0347,-7.06129 2.78212,-2.30895 2.28939,-3.38765 -1.5625,-3.4207 -5.40054,-0.0464 -9.04577,-0.77354 -9.25,-1.8453 -0.69834,-3.6649 -0.19071,-3.98218 5.85778,-3.66115 5.18794,0.27536 6.86434,-0.19326 9.53045,-2.66413 3.08851,-2.86233 3.18224,-3.33337 2.06753,-10.39098 -0.74626,-4.72487 -0.69585,-14.25143 0.13968,-26.39828 0.71902,-10.45304 0.98752,-19.83891 0.59665,-20.8575 -0.39087,-1.01858 0.74419,-6.24733 2.52235,-11.61946 1.77815,-5.37213 4.15872,-12.58 5.29014,-16.0175 4.89684,-14.8777 16.98273,-35.91591 23.87563,-41.56091 1.88776,-1.54601 5.40104,-4.42343 7.80729,-6.39428 2.40625,-1.97085 6.90625,-4.86522 10,-6.43194 3.09375,-1.56672 7.3125,-4.10839 9.375,-5.64814 2.0625,-1.53976 5.01562,-3.18401 6.5625,-3.65388 1.54687,-0.46988 2.8125,-1.33565 2.8125,-1.92393 0,-0.58829 1.73077,-2.80038 3.84615,-4.91577 2.74117,-2.74116 5.03148,-3.84615 7.97195,-3.84615 2.26918,0 4.85395,-0.87739 5.74393,-1.94975 0.88998,-1.07236 3.91198,-3.10905 6.71556,-4.52598 6.54829,-3.30951 12.86797,-6.75825 17.59741,-9.60315 7.37586,-4.4368 10.01806,-4.35404 15.23749,0.47729 2.61939,2.42462 6.16876,4.71579 7.88751,5.0915 1.71875,0.37571 4.41709,1.20668 5.99631,1.8466 1.57923,0.63992 5.35443,1.16349 8.38933,1.16349 5.35236,0 5.55723,0.14572 6.82515,4.85439 1.5459,5.74101 2.94326,7.05393 8.78921,8.25812 7.80291,1.60729 12.76387,4.71675 16.21999,10.16648 3.56131,5.61561 25.31638,26.72101 27.54355,26.72101 0.715,0 3.53036,3.51562 6.25635,7.8125 3.68685,5.81142 4.9594,9.12555 4.96823,12.93883 0.007,3.03296 1.27438,7.50076 3.10355,10.94097 3.78243,7.11377 6.90833,18.75963 6.90833,25.7377 0,2.85679 0.78564,6.7134 1.74586,8.57027 1.38145,2.67144 1.48886,5.20233 0.51457,12.12543 -1.34263,9.54036 -1.37418,12.64509 -0.35521,34.94961 0.48392,10.59251 1.21668,15.54003 2.51389,16.97343 2.11773,2.34006 2.42599,10.25367 0.53692,13.78344 -0.71169,1.32979 -2.28669,2.41782 -3.50001,2.41782 -1.21331,0 -2.88102,0.675 -3.70602,1.5 -1.81949,1.81949 -1.97784,6.80714 -0.25,7.875 1.51425,0.93586 1.6859,13.99505 0.19169,14.58334 -0.58208,0.22916 -1.40084,3.51041 -1.81948,7.29166 l -0.76117,6.875 2.44448,-2.95097 c 1.34447,-1.62306 2.51142,-2.74806 2.59323,-2.5 0.0817,0.24803 0.33052,4.66918 0.5527,9.82477 0.3933,9.12713 0.34691,9.29821 -1.76262,6.50153 -3.46481,-4.59339 -5.94018,-2.44929 -7.37059,6.38419 -0.7238,4.46972 -0.80014,8.94126 -0.18067,10.58219 0.81948,2.17078 0.48719,3.3431 -1.40741,4.9653 -1.36409,1.16798 -2.48016,3.33595 -2.48016,4.81774 0,1.48177 -0.78104,3.34234 -1.73564,4.1346 -0.95461,0.79225 -2.13692,4.65211 -2.62736,8.57749 -0.49045,3.92537 -1.9594,9.22988 -3.26436,11.7878 -1.30495,2.55792 -2.37264,5.34248 -2.37264,6.18792 0,0.84544 -2.34744,5.4223 -5.21654,10.17082 -2.86908,4.74851 -5.61326,10.96982 -6.09815,13.82514 -2.03272,11.96988 -5.5647,21.94324 -11.01525,31.10412 -8.16771,13.7277 -12.17804,20.7073 -15.72416,27.36645 -5.43535,10.20687 -27.55566,31.05771 -36.78702,34.67583 -2.49364,0.97735 -9.59638,2.15241 -15.78388,2.61123 -6.1875,0.45883 -12.09375,1.20642 -13.125,1.66134 -1.03125,0.45491 -2.96688,-7.9e-4 -4.30141,-1.01269 z m 12.11391,-52.01775 c 2.57812,-1.30508 4.6875,-3.20518 4.6875,-4.22245 0,-1.01729 0.84375,-1.8496 1.875,-1.8496 1.03125,0 1.875,1.06403 1.875,2.36449 0,2.55187 4.67991,4.40955 7.94869,3.1552 1.08386,-0.41591 2.85336,0.38846 4.12713,1.87611 1.22638,1.43231 2.80789,2.60406 3.51448,2.6039 1.78985,-4.1e-4 8.98465,-15.6906 10.31733,-22.4997 0.60551,-3.09375 0.78963,-9 0.40914,-13.125 l -0.69177,-7.5 -4.23073,0.34008 c -2.3269,0.18703 -7.71477,1.73391 -11.97307,3.4375 -8.08915,3.23616 -13.74946,3.94558 -15.0242,1.88301 -0.78316,-1.26717 -11.40659,-6.28559 -13.3059,-6.28559 -0.6001,0 -1.12463,3.23437 -1.16561,7.1875 -0.041,3.95312 -0.60349,9.85937 -1.25,13.125 -3.40851,17.21672 -3.43684,17.65405 -1.33279,20.5772 2.33617,3.24561 6.28475,2.94915 14.2198,-1.06765 z m 19.75962,-53.03395 c 0.89553,-1.07905 2.61994,-1.70257 3.83204,-1.3856 1.21209,0.31696 3.12618,-0.44291 4.25353,-1.68861 1.90551,-2.10558 1.88852,-2.33965 -0.24149,-3.32709 -3.57207,-1.65596 -38.23043,-1.29366 -38.80148,0.40561 -0.79134,2.35479 3.03802,5.17729 6.20324,4.57223 1.75794,-0.33605 3.6246,0.23622 4.59861,1.40985 2.31179,2.78552 17.84635,2.79602 20.15555,0.0136 z m -1.55931,-17.561 c -1.1126,-1.1126 -2.63939,-1.64191 -3.39286,-1.17624 -2.4821,1.53403 -1.4292,3.19914 2.02291,3.19914 3.12613,0 3.23383,-0.15904 1.36995,-2.0229 z m 1.44951,-26.67736 c 2.40253,-1.51944 1.99059,-13.16579 -0.60585,-17.12844 -1.29197,-1.97181 -1.91553,-6.45415 -2.01053,-14.4523 -0.0758,-6.3767 -0.58067,-12.1565 -1.12205,-12.844 -0.54139,-0.6875 -1.17887,-2.6505 -1.41662,-4.36223 -0.57178,-4.11671 -4.00479,-4.64328 -5.72062,-0.87747 -2.4022,5.27227 -3.23856,16.83962 -1.63236,22.57644 1.2579,4.49278 1.18021,6.145 -0.47529,10.10715 -2.54096,6.08138 -2.61444,5.64406 1.80027,10.71504 2.07859,2.38758 4.35078,5.04419 5.04928,5.90357 1.49954,1.84489 3.59385,1.96856 6.13377,0.36224 z m 28.0366,-50.67474 c 0.75684,-1.375 1.40677,-2.62444 1.44429,-2.77654 0.0375,-0.1521 2.36464,0.85964 5.1714,2.24832 l 5.10319,2.52486 7.9536,-2.6745 c 9.19856,-3.09314 11.1947,-4.4401 10.24556,-6.91353 -1.06529,-2.77608 -3.89734,-2.10715 -6.24442,1.47495 -1.87869,2.86725 -2.74445,3.17684 -7.20932,2.57798 -3.53652,-0.47435 -5.942,-1.74593 -7.93778,-4.19607 -2.75748,-3.38522 -2.92974,-3.42786 -4.64943,-1.15071 -0.98222,1.30063 -1.99144,2.9815 -2.2427,3.7353 -0.32296,0.96889 -1.4524,0.91694 -3.8539,-0.17726 -5.49875,-2.5054 -9.52941,-2.0121 -9.52941,1.16627 0,6.54805 8.73265,9.64076 11.74892,4.16093 z m -69.65782,-2.32951 c 4.24386,-0.97834 8.33116,-2.15892 9.08289,-2.62351 2.70175,-1.66978 -0.18462,-3.17198 -6.09471,-3.17198 -3.82899,0 -6.59004,-0.68304 -7.57928,-1.875 -0.85586,-1.03125 -2.34305,-1.875 -3.30486,-1.875 -2.80382,0 -12.22909,6.7022 -10.27975,7.30981 0.94028,0.2931 2.73815,1.60468 3.99526,2.91463 1.25711,1.30995 3.22586,2.0933 4.375,1.74079 1.14914,-0.35253 5.5616,-1.44141 9.80545,-2.41974 z m 82.38035,-43.40392 c -0.19794,-4.40557 0.36094,-7.18892 1.81969,-9.0625 4.99683,-6.41777 6.28537,-10.53403 5.04162,-16.10541 -1.44354,-6.46625 -1.73156,-15.40255 -0.6416,-19.90587 0.74735,-3.08775 0.45546,-3.36552 -4.39844,-4.18556 -4.04227,-0.68296 -5.72736,-0.40011 -7.57426,1.27131 -2.97304,2.69056 -6.90936,1.54652 -5.51054,-1.60158 0.53203,-1.19732 1.2157,-4.64517 1.51928,-7.66186 0.53759,-5.34205 0.46692,-5.46865 -2.71263,-4.86084 -3.9586,0.75673 -4.06802,0.11213 -0.60643,-3.5726 3.27818,-3.48946 2.2906,-6.70666 -2.05877,-6.70666 -1.77598,0 -5.30927,-1.07173 -7.85172,-2.38161 -5.26631,-2.71323 -14.7741,-5.11839 -20.23344,-5.11839 -2.57214,0 -4.91682,1.27896 -7.69232,4.19594 -3.72857,3.91864 -4.2883,4.11289 -8.46965,2.93932 -8.69601,-2.4407 -25.24736,-0.87061 -30.10224,2.85555 -2.71759,2.08577 -2.92129,2.7294 -1.5625,4.93687 0.85937,1.39612 1.5625,3.37618 1.5625,4.40015 0,1.02396 1.1229,3.70347 2.49533,5.95446 1.50178,2.46315 2.50468,6.33237 2.51882,9.71771 0.0129,3.09375 0.83408,7.875 1.82481,10.625 0.99072,2.75 1.826,8.39046 1.85617,12.53436 0.0683,9.37438 2.32709,13.09064 7.95676,13.09064 2.20557,0 6.18185,1.16398 8.83617,2.5866 4.10019,2.19758 5.36304,2.36416 8.39654,1.10765 4.86084,-2.01342 7.62786,-0.80023 6.69075,2.93355 -0.4646,1.85112 -0.0351,3.51444 1.16454,4.51006 2.6514,2.20048 4.86393,0.44206 3.96258,-3.14922 -0.98477,-3.92363 1.50864,-3.91122 3.00137,0.015 1.7791,4.6794 3.34382,4.90102 10.37506,1.46945 5.9106,-2.88465 7.0315,-3.05098 11.5461,-1.71334 2.75,0.81481 6.59004,2.77721 8.53341,4.36089 1.94336,1.58368 5.1231,2.87942 7.06606,2.87942 3.45133,0 3.52608,-0.14639 3.24698,-6.35842 z m -118.4386,-19.89186 c 0.22431,-2.30051 -0.15119,-5.35094 -0.83446,-6.77873 -1.49641,-3.12698 -3.94839,-10.67688 -3.94839,-12.1575 0,-0.58492 0.81826,-1.06348 1.81836,-1.06348 1.97693,0 3.99386,-7.67453 2.60677,-9.91889 -1.7365,-2.80971 -4.12563,-1.16407 -4.87282,3.35639 -1.25694,7.60449 -0.91233,26.52127 0.53232,29.22064 1.90102,3.55208 4.22063,2.23956 4.69822,-2.65843 z m 185.31584,39.27113 c 0.06,-1.45619 0.35617,-1.75238 0.7552,-0.75522 0.36108,0.90234 0.31668,1.98047 -0.0986,2.39584 -0.41537,0.41536 -0.7108,-0.32292 -0.65652,-1.64062 z"
         id="path3395"
         inkscape:connector-curvature="0" />
      <path
         style="fill:#e31027"
         d="m 300.18604,607.01401 c -0.85176,-1.02632 -3.72357,-2.45167 -6.38179,-3.16746 -2.7672,-0.74512 -5.45927,-2.47137 -6.29794,-4.03845 -0.80565,-1.50536 -4.11451,-5.56437 -7.35303,-9.02003 -3.86511,-4.12428 -6.17108,-7.84484 -6.71148,-10.82865 -0.46504,-2.56774 -2.86325,-6.91892 -5.51165,-10 -6.95627,-8.09277 -11.50155,-15.63362 -11.50155,-19.08167 0,-1.68075 -1.33328,-4.64594 -2.96285,-6.5893 -4.67696,-5.5776 -8.28715,-13.15056 -8.28715,-17.38366 0,-2.29979 -1.02095,-4.81123 -2.5,-6.14975 -1.375,-1.24436 -2.5,-3.11973 -2.5,-4.16749 0,-2.54057 -2.33112,-9.98522 -4.50006,-14.37131 -0.96247,-1.94634 -1.74994,-5.38347 -1.74994,-7.63806 0,-2.31124 -1.36308,-6.10788 -3.125,-8.70422 -1.71875,-2.53272 -3.125,-5.56613 -3.125,-6.74091 0,-1.17478 -1.125,-6.06988 -2.5,-10.87801 -1.375,-4.80813 -2.5,-10.34696 -2.5,-12.30853 0,-2.4093 -1.4195,-4.98597 -4.375,-7.94147 -4.42523,-4.42524 -5.4052,-7.09076 -3.125,-8.5 1.89962,-1.17404 1.49337,-10.12435 -0.69686,-15.35265 -1.07077,-2.55604 -2.28077,-8.3036 -2.68888,-12.77235 -0.45384,-4.96952 -1.62114,-9.25931 -3.00567,-11.04573 -1.88897,-2.43728 -2.15626,-4.50624 -1.61486,-12.5 0.71084,-10.49566 -0.56944,-17.06099 -3.337,-17.11231 -3.85631,-0.0715 -4.90673,-2.06491 -4.90673,-9.31156 0,-4.74659 0.5496,-7.50524 1.5625,-7.8428 1.15595,-0.38525 1.64683,-6.34796 1.88661,-22.91667 0.43919,-30.34756 0.91049,-40.46428 2.09155,-44.89593 6.3467,-23.81458 20.09753,-51.07332 30.41247,-60.28768 8.43625,-7.53612 13.08511,-11.04435 17.03541,-12.85568 2.27107,-1.04135 6.14644,-3.43197 8.61193,-5.3125 2.4655,-1.88053 5.10008,-3.41914 5.85463,-3.41914 0.75455,0 4.07047,-2.7851 7.36871,-6.18912 4.69079,-4.84122 6.6011,-6.03109 8.77154,-5.46351 1.80411,0.47179 3.73756,-0.1428 5.52719,-1.75693 1.51385,-1.3654 4.43996,-3.33667 6.50246,-4.3806 9.31746,-4.716 12.75926,-6.63526 16.72419,-9.32593 6.39027,-4.33656 11.86057,-3.63256 18.4675,2.37668 2.93883,2.673 8.90453,4.54617 18.48365,5.80371 5.58437,0.73312 6.27038,1.17929 7.16861,4.66237 1.32399,5.13413 4.72045,7.9946 11.22902,9.45698 6.60104,1.48315 12.79563,6.04634 15.48714,11.40844 2.11333,4.21024 20.96828,21.87335 25.51496,23.90214 3.93744,1.75693 11.29993,14.65456 11.29993,19.79525 0,5.02479 2.12531,11.98741 4.50427,14.7562 2.07017,2.4094 5.43423,16.44001 5.53363,23.07932 0.0411,2.75 0.76051,6.605 1.59854,8.56666 1.07393,2.51391 1.21561,6.01902 0.48,11.875 -1.40208,11.16154 -1.4522,16.68575 -0.32493,35.80834 0.69759,11.83334 1.43366,16.52169 2.70821,17.24961 1.71153,0.97749 2.5317,7.12539 0.95058,7.12539 -0.43983,0 -1.52624,-0.98438 -2.41425,-2.1875 -1.44296,-1.95502 -1.97534,-1.40218 -5.0094,5.20197 -3.03593,6.6082 -3.42998,9.05319 -3.72708,23.125 -0.18272,8.65454 -1.22478,20.23553 -2.31568,25.73553 -1.0909,5.5 -1.99174,13.09375 -2.00187,16.875 -0.0171,6.37802 -2.58081,16.4277 -4.94017,19.36515 -0.55656,0.69291 -1.41914,4.3536 -1.91685,8.13485 -0.49771,3.78125 -1.36228,7.44432 -1.92126,8.14017 -0.55899,0.69586 -2.25614,4.63336 -3.77144,8.75 -1.51531,4.11665 -3.45839,8.32858 -4.31796,9.35983 -3.10697,3.72749 -6.09729,10.73957 -6.92985,16.25 -1.6863,11.16082 -4.82239,19.8603 -10.76157,29.85245 -8.43951,14.19875 -12.41602,21.11533 -15.92631,27.70156 -4.75904,8.92923 -29.03516,32.44599 -33.49367,32.44599 -0.97631,0 -2.867,0.82586 -4.20153,1.83525 -1.68646,1.27557 -5.71521,1.84736 -13.21086,1.875 -8.02411,0.0296 -11.18273,0.51966 -12.34055,1.91475 -1.95772,2.35891 -3.04067,2.36085 -4.99256,0.009 z m -4.00744,-28.38397 c 2.54426,-2.54425 1.68019,-4.64116 -2.65966,-6.45446 -4.63748,-1.93767 -6.33491,-5.22441 -8.20218,-15.88191 -1.69592,-9.67957 -6.78107,-20.72313 -10.01481,-21.74948 -1.52159,-0.48294 -2.62335,-1.89095 -2.62335,-3.35255 0,-3.78686 -3.05798,-2.06427 -3.53439,1.99096 -0.22517,1.91663 0.47796,6.19769 1.5625,9.51348 1.08454,3.31579 1.97189,6.80173 1.97189,7.74655 0,1.54302 3.19027,8.49698 6.16468,13.43741 0.62087,1.03125 1.8257,3.75056 2.6774,6.04291 0.86597,2.33077 3.52863,5.46648 6.04073,7.11395 5.19469,3.40676 6.55253,3.6578 8.61719,1.59314 z m 6.6875,-1.625 c 0,-0.65313 -0.60469,-1.38906 -1.34375,-1.63541 -0.73906,-0.24637 -1.34375,0.48957 -1.34375,1.63541 0,1.14584 0.60469,1.88178 1.34375,1.63541 0.73906,-0.24635 1.34375,-0.98228 1.34375,-1.63541 z m 38.19537,-11.875 c 2.64702,0 4.40948,-3.88886 4.66815,-10.30024 0.33643,-8.33845 3.09254,-17.24699 5.62332,-18.1762 1.07286,-0.39391 2.36392,-1.31973 2.86902,-2.05738 1.2552,-1.83311 1.19856,-6.96618 -0.0769,-6.96618 -0.56843,0 -0.80178,-1.57888 -0.51855,-3.5086 0.32237,-2.19645 -0.22608,-4.1236 -1.46649,-5.15306 -1.0898,-0.90445 -1.98145,-3.22645 -1.98145,-5.16003 0,-9.1192 -5.52571,-13.0451 -10.3805,-7.37512 -1.20236,1.40425 -2.74389,2.20846 -3.4256,1.78714 -0.68172,-0.42133 -3.0965,0.38164 -5.36619,1.78438 -6.00246,3.70974 -16.3796,4.60703 -23.32771,2.01712 -12.29499,-4.58296 -13.07408,-4.18849 -11.54973,5.84785 1.10111,7.24967 0.58207,19.76032 -0.8198,19.76032 -0.48304,0 -1.61247,-2.10938 -2.50984,-4.6875 -2.77453,-7.97113 -7.69129,-17.48897 -10.21377,-19.7718 -3.02021,-2.73325 -3.16864,-0.96144 -0.58301,6.9593 1.00992,3.09375 2.12343,7.07229 2.47446,8.84119 0.35103,1.76891 2.66641,5.87242 5.1453,9.11892 3.9042,5.11319 4.40333,6.52219 3.73151,10.53381 -0.89628,5.35194 1.63403,13.84399 4.70154,15.77893 1.47955,0.93327 3.5914,0.7223 7.5847,-0.75772 6.97224,-2.58409 20.19464,-1.76373 23.91364,1.48368 3.62302,3.1636 5.98426,3.65549 8.22342,1.71308 1.08539,-0.94154 2.56339,-1.71189 3.28445,-1.71189 z m -8.44453,-61.8007 c 0.82195,-0.99039 2.30423,-1.48995 3.29397,-1.11015 0.98974,0.3798 2.62895,0.002 3.64269,-0.83915 1.01374,-0.84133 2.62554,-1.22946 3.58176,-0.86253 2.14542,0.82328 4.54324,-1.41746 4.54324,-4.24559 0,-2.35487 -5.21101,-3.89871 -12.7589,-3.78002 -2.54864,0.0401 -4.97246,-0.47495 -5.38627,-1.1445 -0.45303,-0.73301 2.38533,-1.30236 7.13389,-1.431 4.33745,-0.1175 9.85503,-0.26312 12.26128,-0.32361 5.57935,-0.14024 6.72323,-0.92609 9.32316,-6.40507 2.97424,-6.26774 1.90015,-8.05768 -4.83516,-8.05768 -3.07475,0 -5.9381,-0.5625 -6.363,-1.25 -0.4249,-0.6875 -1.86435,-1.25 -3.19878,-1.25 -1.33442,0 -2.42622,-0.5246 -2.42622,-1.16576 0,-1.81553 -5.09675,-2.98749 -6.57285,-1.51139 -0.92826,0.92826 -0.9238,1.80165 0.015,2.93667 1.69476,2.04898 0.52759,8.49048 -1.53844,8.49048 -0.85516,0 -3.65716,-1.42668 -6.22667,-3.17039 -5.51614,-3.74335 -8.05555,-3.28444 -13.84133,2.50134 -3.95851,3.95851 -4.1895,4.01981 -10.75306,2.8535 -13.92271,-2.47399 -12.87651,-2.01165 -10.49833,-4.6395 1.56532,-1.72966 1.79429,-2.93611 0.88109,-4.64245 -1.86512,-3.48501 -6.12386,-6.96641 -6.92875,-5.66406 -1.19402,1.93195 0.71647,14.01156 2.21604,14.01156 0.77246,0 1.95974,1.26562 2.63839,2.8125 0.9885,2.25314 2.41478,2.88828 7.17141,3.19349 3.26562,0.20955 5.9375,0.82735 5.9375,1.37288 0,0.54555 -2.25,1.87573 -5,2.95595 -5.29125,2.07847 -6.44244,4.29722 -2.8125,5.42065 1.20312,0.37237 3.16424,1.19847 4.35804,1.83578 1.19379,0.63731 3.44379,1.17664 5,1.1985 1.5562,0.0219 3.92135,0.86562 5.25587,1.875 3.33088,2.51935 19.80314,2.54535 21.88693,0.0345 z m -25.36039,-12.24266 c -1.8513,-1.17014 -0.58486,-1.33008 7.92205,-1.00044 3.78125,0.14652 7.39892,0.76837 8.03929,1.38189 1.39459,1.33612 -13.81916,0.97255 -15.96134,-0.38145 z m 36.99942,-10.56974 c 1.16222,-1.1622 2.46408,-1.76213 2.89304,-1.33316 1.23023,1.23023 -0.65836,3.44626 -2.93704,3.44626 -1.9081,0 -1.90467,-0.16441 0.044,-2.1131 z m -17.20237,-15.3869 c 0.44584,-0.72138 -0.71238,-1.2419 -2.73872,-1.23086 -2.72639,0.0149 -3.09216,0.29 -1.63628,1.23086 2.40161,1.55204 3.41579,1.55204 4.375,0 z m -11.25,-3.75 c -0.4249,-0.6875 -1.61629,-1.25 -2.64754,-1.25 -1.03125,0 -1.52736,0.5625 -1.10246,1.25 0.4249,0.6875 1.61629,1.25 2.64754,1.25 1.03125,0 1.52736,-0.5625 1.10246,-1.25 z m 15.58732,-3.70026 c 2.40253,-1.51944 1.99059,-13.16579 -0.60585,-17.12844 -1.29197,-1.97181 -1.91553,-6.45415 -2.01053,-14.4523 -0.0758,-6.3767 -0.58067,-12.1565 -1.12205,-12.844 -0.54139,-0.6875 -1.17887,-2.6505 -1.41662,-4.36222 -0.57178,-4.11672 -4.00479,-4.64329 -5.72062,-0.87748 -2.4022,5.27228 -3.23856,16.83962 -1.63236,22.57644 1.2579,4.49279 1.18021,6.145 -0.47529,10.10715 -2.54096,6.08139 -2.61444,5.64406 1.80027,10.71504 2.07859,2.38758 4.35078,5.0442 5.04928,5.90357 1.49954,1.84489 3.59385,1.96856 6.13377,0.36224 z m 61.71612,-50.09158 c 3.20186,-1.41632 5.80367,-2.9707 5.78181,-3.45415 -0.0697,-1.54106 -3.31469,-5.25401 -4.59183,-5.25401 -0.67702,0 -2.24906,-1.125 -3.49342,-2.5 -2.9811,-3.29408 -4.90861,-3.15452 -7.32294,0.5302 -3.67607,5.61039 -9.66149,5.19899 -14.68892,-1.00964 -1.91008,-2.35882 -2.53031,-2.46233 -6.39052,-1.06646 -5.28502,1.91109 -8.80046,1.96806 -10.5968,0.17173 -1.72975,-1.72976 -6.15602,-0.40309 -7.13086,2.13731 -1.51027,3.93571 5.47604,12.98686 10.02416,12.98686 1.55833,0 3.21439,-0.61656 3.68013,-1.37015 0.50745,-0.82106 2.41554,-1.04725 4.76127,-0.56441 17.11479,3.52284 20.79993,3.44816 29.96792,-0.60728 z m -106.51636,-0.0449 c 1.73552,-0.92883 2.97682,-0.93914 4.06769,-0.0337 1.15436,0.95802 2.99061,0.0172 6.93655,-3.55375 2.95163,-2.67118 5.02912,-5.40274 4.61665,-6.07011 -0.41246,-0.66739 -3.71049,-1.59333 -7.32895,-2.05765 -3.61846,-0.46432 -7.955,-1.59328 -9.63675,-2.50882 -2.72092,-1.48123 -3.71103,-1.30107 -8.9888,1.63563 l -5.93108,3.30016 -4.37102,-2.3425 c -5.37538,-2.88078 -9.92834,-1.9888 -12.8855,2.52439 -2.08486,3.18191 -2.05509,3.34087 1.14047,6.08959 2.73347,2.35122 4.46685,2.75648 10.38364,2.42768 3.90633,-0.21707 8.30788,0.0917 9.78122,0.68634 3.76877,1.52089 9.27426,1.47706 12.21588,-0.0972 z m 44.58792,-26.41329 c 0.825,-0.825 1.5,-2.4806 1.5,-3.67913 0,-1.19851 1.03574,-2.91413 2.30163,-3.8125 1.26589,-0.89834 2.93307,-2.82405 3.70483,-4.27931 2.2018,-4.15179 14.70028,-5.19472 21.38491,-1.78447 5.9171,3.01867 14.13568,3.3589 16.36121,0.67731 0.90775,-1.09376 1.25431,-3.39999 0.82985,-5.52228 -0.51273,-2.56362 10e-4,-4.57286 1.73482,-6.77621 1.35501,-1.72261 3.36851,-5.93375 4.47445,-9.35807 1.84731,-5.71989 1.84741,-6.55353 10e-4,-10.25436 -1.85064,-3.70972 -1.84704,-4.37089 0.0456,-8.35944 1.13039,-2.38212 2.95101,-4.64621 4.04585,-5.03133 1.09483,-0.38511 3.00806,-1.57558 4.25164,-2.64548 1.24356,-1.06992 3.91544,-1.81923 5.9375,-1.66515 2.96755,0.22611 3.67646,-0.21552 3.67646,-2.29034 0,-1.41377 -1.26372,-4.37581 -2.80827,-6.58235 -1.54455,-2.20654 -2.89048,-4.18594 -2.99095,-4.39866 -0.1005,-0.21273 -2.34404,0.77165 -4.98572,2.1875 -6.18645,3.31573 -12.38528,3.53246 -11.06305,0.38677 2.85897,-6.80165 1.20682,-13.57094 -2.9873,-12.23977 -2.38952,0.75841 -7.66467,-5.21416 -7.66467,-8.67805 0,-2.40768 -5.81429,-4.76941 -9.84483,-3.99893 -2.08406,0.3984 -4.10814,-0.51255 -6.75119,-3.03838 -3.78506,-3.6172 -8.80596,-4.74077 -10.31002,-2.30716 -0.50518,0.81742 -3.50241,0.99488 -8.07183,0.47791 -6.45477,-0.73028 -7.98347,-0.43306 -13.65817,2.6555 l -6.38988,3.47781 -3.38867,-3.01821 c -1.86377,-1.66002 -4.03107,-3.81886 -4.81623,-4.79743 -1.19239,-1.48611 -1.78826,-1.22871 -3.61713,1.5625 -2.63638,4.02362 -3.65097,4.09909 -9.92197,0.73804 -3.43975,-1.8436 -6.05146,-2.37976 -8.94651,-1.83665 -2.31797,0.43485 -4.43345,0.20909 -4.88486,-0.52132 -1.23299,-1.99501 -7.06958,-1.52119 -9.61278,0.78037 -2.92505,2.64713 -2.91376,6.78558 0.0288,10.5752 3.0383,3.91287 7.4788,18.06168 7.40858,23.60607 -0.0305,2.40625 -0.89667,5.34284 -1.92486,6.52575 -1.0282,1.18291 -2.00862,5.04512 -2.17871,8.58268 -0.24042,5.00021 0.21267,6.87881 2.03548,8.43955 1.2896,1.10419 2.38914,2.86698 2.44342,3.91732 0.0866,1.67542 0.18624,1.67967 0.81243,0.0347 0.76919,-2.02065 2.8106,-3.70005 4.53512,-3.73086 0.58918,-0.01 0.73539,0.85605 0.32492,1.92574 -0.85413,2.22581 2.18869,10.24657 4.66698,12.30201 0.91389,0.75796 2.65732,4.09025 3.8743,7.40509 2.87165,7.82193 7.33076,10.29823 10.64122,5.90946 2.18023,-2.8904 2.3651,-2.9137 9.88407,-1.24561 5.64851,1.25311 7.66227,2.24891 7.66227,3.78896 0,2.92127 3.0825,5.16064 6.49631,4.71941 3.79182,-0.49009 6.00369,0.9979 6.00369,4.0388 0,3.23303 -3.11286,4.32859 -7.11625,2.50453 -1.76375,-0.80363 -3.49553,-1.17242 -3.84841,-0.81954 -0.95315,0.95316 2.38107,4.58096 5.29626,5.76261 3.47964,1.41043 3.71062,1.39719 5.4184,-0.3106 z m 51.5,-63.5 c 0,-0.6875 0.5293,-1.25 1.17622,-1.25 0.64693,0 1.52388,0.5625 1.94878,1.25 0.4249,0.6875 -0.10437,1.25 -1.17622,1.25 -1.07183,0 -1.94878,-0.5625 -1.94878,-1.25 z m -13.79474,-12.29456 c 0.8235,-1.60575 1.84011,-2.57674 2.25911,-2.15774 0.419,0.419 -0.25478,1.7328 -1.4973,2.91956 -2.15968,2.06278 -2.19321,2.02925 -0.76181,-0.76182 z m -137.57473,61.81351 c 1.97583,-2.38074 3.05596,-16.55624 1.72539,-22.64395 -1.08107,-4.94624 -2.78739,-6.1221 -4.2213,-2.90903 -0.40721,0.91247 -1.39293,2.78403 -2.19049,4.15903 -4.51506,7.78404 -6.46039,18.2181 -3.95859,21.23257 1.96402,2.36651 6.7409,2.45567 8.64499,0.16138 z m 180.60661,-4.20645 c -1.17983,-6.69249 -1.16269,-10.11956 0.17179,-34.375 1.30221,-23.66903 -1.06057,-22.54156 -3.15392,1.50497 -2.01567,23.15411 -0.8981,38.80753 2.77065,38.80753 0.81458,0 0.88914,-2.09345 0.21148,-5.9375 z M 254.94858,348.5322 c 1.10253,-1.32846 3.88128,-18.024 4.10303,-24.65216 0.0345,-1.03125 -0.74876,-5.36992 -1.74059,-9.6415 -0.99183,-4.27157 -1.54435,-9.12126 -1.22782,-10.77709 0.69148,-3.61725 -2.94315,-11.19039 -5.04043,-10.50224 -0.81904,0.26875 -1.66716,1.99212 -1.8847,3.82973 -0.21754,1.8376 -1.11473,3.3411 -1.99376,3.3411 -0.87903,0 -2.50065,0.99715 -3.60358,2.21587 -1.83123,2.02349 -1.84159,4.00423 -0.11937,22.8125 1.6355,17.86103 2.22655,20.88717 4.45009,22.78413 3.03994,2.59345 5.24146,2.77739 7.05712,0.58966 z m 133.56518,-52.87409 c 0.41619,-1.08456 -0.061,-2.78957 -1.06029,-3.78891 -1.58931,-1.58931 -2.09595,-1.50872 -4.04337,0.64316 -1.22453,1.35308 -1.85685,3.05809 -1.40518,3.78892 1.249,2.02092 5.65354,1.5857 6.50884,-0.64317 z m 34.76859,129.43754 c -0.43659,-0.7064 0.8152,-3.71352 2.78175,-6.68247 l 3.57555,-5.39809 0.0966,6.68247 c 0.0891,6.16991 -0.12413,6.68248 -2.78177,6.68248 -1.58308,0 -3.23555,-0.57797 -3.67214,-1.28439 z m 2.86762,-27.77811 c -0.57341,-7.23779 0.19,-10.22413 1.6564,-6.47952 1.34579,3.43663 1.34054,13.04202 -0.007,13.04202 -0.62113,0 -1.36331,-2.95313 -1.64926,-6.5625 z"
         id="path3393"
         inkscape:connector-curvature="0" />
      <path
         style="fill:#9d191e"
         d="m 300.18604,607.01401 c -0.85176,-1.02632 -3.72357,-2.45167 -6.38179,-3.16746 -2.7672,-0.74512 -5.45927,-2.47137 -6.29794,-4.03845 -0.80565,-1.50536 -4.11451,-5.56437 -7.35303,-9.02003 -3.86511,-4.12428 -6.17108,-7.84484 -6.71148,-10.82865 -0.46504,-2.56774 -2.86325,-6.91892 -5.51165,-10 -6.95627,-8.09277 -11.50155,-15.63362 -11.50155,-19.08167 0,-1.68075 -1.33328,-4.64594 -2.96285,-6.5893 -4.67696,-5.5776 -8.28715,-13.15056 -8.28715,-17.38366 0,-2.29979 -1.02095,-4.81123 -2.5,-6.14975 -1.375,-1.24436 -2.5,-3.11973 -2.5,-4.16749 0,-2.54057 -2.33112,-9.98522 -4.50006,-14.37131 -0.96247,-1.94634 -1.74994,-5.38347 -1.74994,-7.63806 0,-2.31124 -1.36308,-6.10788 -3.125,-8.70422 -1.71875,-2.53272 -3.125,-5.56613 -3.125,-6.74091 0,-1.17478 -1.125,-6.06988 -2.5,-10.87801 -1.375,-4.80813 -2.5,-10.34696 -2.5,-12.30853 0,-2.4093 -1.4195,-4.98597 -4.375,-7.94147 -4.42523,-4.42524 -5.4052,-7.09076 -3.125,-8.5 1.89962,-1.17404 1.49337,-10.12435 -0.69686,-15.35265 -1.07077,-2.55604 -2.28077,-8.3036 -2.68888,-12.77235 -0.45384,-4.96952 -1.62114,-9.25931 -3.00567,-11.04573 -1.88897,-2.43728 -2.15626,-4.50624 -1.61486,-12.5 0.71084,-10.49566 -0.56944,-17.06099 -3.337,-17.11231 -3.85631,-0.0715 -4.90673,-2.06491 -4.90673,-9.31156 0,-4.74659 0.5496,-7.50524 1.5625,-7.8428 1.15595,-0.38525 1.64683,-6.34796 1.88661,-22.91667 0.43919,-30.34756 0.91049,-40.46428 2.09155,-44.89593 6.3467,-23.81458 20.09753,-51.07332 30.41247,-60.28768 8.43625,-7.53612 13.08511,-11.04435 17.03541,-12.85568 2.27107,-1.04135 6.14644,-3.43197 8.61193,-5.3125 2.4655,-1.88053 5.10008,-3.41914 5.85463,-3.41914 0.75455,0 4.07047,-2.7851 7.36871,-6.18912 4.69079,-4.84122 6.6011,-6.03109 8.77154,-5.46351 1.80411,0.47179 3.73756,-0.1428 5.52719,-1.75693 1.51385,-1.3654 4.43996,-3.33667 6.50246,-4.3806 9.31746,-4.716 12.75926,-6.63526 16.72419,-9.32593 6.39027,-4.33656 11.86057,-3.63256 18.4675,2.37668 2.93883,2.673 8.90453,4.54617 18.48365,5.80371 5.58437,0.73312 6.27038,1.17929 7.16861,4.66237 1.32399,5.13413 4.72045,7.9946 11.22902,9.45698 6.60104,1.48315 12.79563,6.04634 15.48714,11.40844 2.11333,4.21024 20.96828,21.87335 25.51496,23.90214 3.93744,1.75693 11.29993,14.65456 11.29993,19.79525 0,5.02479 2.12531,11.98741 4.50427,14.7562 2.07017,2.4094 5.43423,16.44001 5.53363,23.07932 0.0411,2.75 0.76051,6.605 1.59854,8.56666 1.07393,2.51391 1.21561,6.01902 0.48,11.875 -1.40208,11.16154 -1.4522,16.68575 -0.32493,35.80834 0.69759,11.83334 1.43366,16.52169 2.70821,17.24961 1.71153,0.97749 2.5317,7.12539 0.95058,7.12539 -0.43983,0 -1.52624,-0.98438 -2.41425,-2.1875 -1.44296,-1.95502 -1.97534,-1.40218 -5.0094,5.20197 -3.03593,6.6082 -3.42998,9.05319 -3.72708,23.125 -0.18272,8.65454 -1.22478,20.23553 -2.31568,25.73553 -1.0909,5.5 -1.99174,13.09375 -2.00187,16.875 -0.0171,6.37802 -2.58081,16.4277 -4.94017,19.36515 -0.55656,0.69291 -1.41914,4.3536 -1.91685,8.13485 -0.49771,3.78125 -1.36228,7.44432 -1.92126,8.14017 -0.55899,0.69586 -2.25614,4.63336 -3.77144,8.75 -1.51531,4.11665 -3.45839,8.32858 -4.31796,9.35983 -3.10697,3.72749 -6.09729,10.73957 -6.92985,16.25 -1.6863,11.16082 -4.82239,19.8603 -10.76157,29.85245 -8.43951,14.19875 -12.41602,21.11533 -15.92631,27.70156 -4.75904,8.92923 -29.03516,32.44599 -33.49367,32.44599 -0.97631,0 -2.867,0.82586 -4.20153,1.83525 -1.68646,1.27557 -5.71521,1.84736 -13.21086,1.875 -8.02411,0.0296 -11.18273,0.51966 -12.34055,1.91475 -1.95772,2.35891 -3.04067,2.36085 -4.99256,0.009 z m -4.00744,-28.38397 c 2.54426,-2.54425 1.68019,-4.64116 -2.65966,-6.45446 -4.63748,-1.93767 -6.33491,-5.22441 -8.20218,-15.88191 -1.69592,-9.67957 -6.78107,-20.72313 -10.01481,-21.74948 -1.52159,-0.48294 -2.62335,-1.89095 -2.62335,-3.35255 0,-3.78686 -3.05798,-2.06427 -3.53439,1.99096 -0.22517,1.91663 0.47796,6.19769 1.5625,9.51348 1.08454,3.31579 1.97189,6.80173 1.97189,7.74655 0,1.54302 3.19027,8.49698 6.16468,13.43741 0.62087,1.03125 1.8257,3.75056 2.6774,6.04291 0.86597,2.33077 3.52863,5.46648 6.04073,7.11395 5.19469,3.40676 6.55253,3.6578 8.61719,1.59314 z m 6.6875,-1.625 c 0,-0.65313 -0.60469,-1.38906 -1.34375,-1.63541 -0.73906,-0.24637 -1.34375,0.48957 -1.34375,1.63541 0,1.14584 0.60469,1.88178 1.34375,1.63541 0.73906,-0.24635 1.34375,-0.98228 1.34375,-1.63541 z m 38.19537,-11.875 c 2.64702,0 4.40948,-3.88886 4.66815,-10.30024 0.33643,-8.33845 3.09254,-17.24699 5.62332,-18.1762 1.07286,-0.39391 2.36392,-1.31973 2.86902,-2.05738 1.2552,-1.83311 1.19856,-6.96618 -0.0769,-6.96618 -0.56843,0 -0.80178,-1.57888 -0.51855,-3.5086 0.32237,-2.19645 -0.22608,-4.1236 -1.46649,-5.15306 -1.0898,-0.90445 -1.98145,-3.22645 -1.98145,-5.16003 0,-9.1192 -5.52571,-13.0451 -10.3805,-7.37512 -1.20236,1.40425 -2.74389,2.20846 -3.4256,1.78714 -0.68172,-0.42133 -3.0965,0.38164 -5.36619,1.78438 -6.00246,3.70974 -16.3796,4.60703 -23.32771,2.01712 -12.29499,-4.58296 -13.07408,-4.18849 -11.54973,5.84785 1.10111,7.24967 0.58207,19.76032 -0.8198,19.76032 -0.48304,0 -1.61247,-2.10938 -2.50984,-4.6875 -2.77453,-7.97113 -7.69129,-17.48897 -10.21377,-19.7718 -3.02021,-2.73325 -3.16864,-0.96144 -0.58301,6.9593 1.00992,3.09375 2.12343,7.07229 2.47446,8.84119 0.35103,1.76891 2.66641,5.87242 5.1453,9.11892 3.9042,5.11319 4.40333,6.52219 3.73151,10.53381 -0.89628,5.35194 1.63403,13.84399 4.70154,15.77893 1.47955,0.93327 3.5914,0.7223 7.5847,-0.75772 6.97224,-2.58409 20.19464,-1.76373 23.91364,1.48368 3.62302,3.1636 5.98426,3.65549 8.22342,1.71308 1.08539,-0.94154 2.56339,-1.71189 3.28445,-1.71189 z m -8.44453,-61.8007 c 0.82195,-0.99039 2.30423,-1.48995 3.29397,-1.11015 0.98974,0.3798 2.62895,0.002 3.64269,-0.83915 1.01374,-0.84133 2.62554,-1.22946 3.58176,-0.86253 2.14542,0.82328 4.54324,-1.41746 4.54324,-4.24559 0,-2.35487 -5.21101,-3.89871 -12.7589,-3.78002 -2.54864,0.0401 -4.97246,-0.47495 -5.38627,-1.1445 -0.45303,-0.73301 2.38533,-1.30236 7.13389,-1.431 4.33745,-0.1175 9.85503,-0.26312 12.26128,-0.32361 5.57935,-0.14024 6.72323,-0.92609 9.32316,-6.40507 2.36914,-4.99258 1.8454,-8.05768 -1.37682,-8.05768 -1.84078,0 -1.76073,-0.39534 0.58577,-2.89306 1.60876,-1.71245 2.71789,-4.50771 2.71789,-6.8497 0,-4.62464 -3.20561,-13.35581 -6.46665,-17.61332 -2.94365,-3.84313 -3.21026,-12.03687 -0.33938,-10.43025 1.06919,0.59836 2.89732,2.51514 4.0625,4.25955 7.44967,11.15289 11.91094,15.92234 16.67744,17.82952 4.62452,1.85036 5.33778,1.86261 7.25821,0.12462 1.17135,-1.06005 3.26642,-1.92737 4.65571,-1.92737 1.38928,0 5.00123,-1.67727 8.02657,-3.72725 6.48961,-4.39742 9.8756,-4.83379 9.8756,-1.27274 0,3.19285 2.72058,3.20936 5.59426,0.034 1.83296,-2.0254 2.33649,-5.43694 2.81794,-19.0927 0.67976,-19.28071 -0.52384,-25.20414 -5.99478,-29.5028 -2.95072,-2.31845 -4.10993,-2.62732 -5.50746,-1.46748 -1.40482,1.16591 -2.10452,0.93356 -3.39071,-1.12597 -0.89134,-1.42729 -2.24188,-2.59505 -3.0012,-2.59505 -0.75933,0 -2.39869,-1.125 -3.64305,-2.5 -2.9811,-3.29408 -4.90861,-3.15452 -7.32294,0.5302 -3.67607,5.61039 -9.66149,5.19899 -14.68892,-1.00964 -1.91008,-2.35882 -2.53031,-2.46233 -6.39052,-1.06646 -5.28502,1.91109 -8.80046,1.96806 -10.5968,0.17173 -1.51593,-1.51594 -6.62582,-0.39122 -6.62582,1.45841 0,0.64116 -0.60489,1.16576 -1.34421,1.16576 -0.73932,0 -1.2422,-1.54688 -1.11754,-3.4375 0.54717,-8.29844 1.53625,-7.85681 -15.96266,-7.12744 -8.75843,0.36506 -16.31458,1.0634 -16.79146,1.55185 -0.47689,0.48845 -1.04528,3.13341 -1.26309,5.87769 -0.29609,3.73036 -0.99629,5.10351 -2.77448,5.44092 -1.30814,0.24824 -2.84607,-0.38428 -3.41762,-1.40558 -0.5976,-1.06787 -3.83621,-2.21583 -7.62156,-2.70155 -3.62031,-0.46455 -7.95836,-1.5937 -9.64011,-2.50924 -2.72092,-1.48124 -3.71103,-1.30108 -8.9888,1.63563 l -5.93108,3.30022 -4.37102,-2.3425 c -5.38175,-2.88418 -9.9289,-1.98795 -12.89701,2.54196 -2.12793,3.24764 -2.10426,3.32486 2.09343,6.82925 2.33514,1.94945 3.83206,3.9581 3.3265,4.46367 -1.832,1.832 -7.16156,-3.41588 -14.54929,-14.32631 -1.03125,-1.52298 -3.28125,-2.91463 -5,-3.09257 -2.9149,-0.30175 -3.15145,0.0961 -3.51838,5.91745 -0.21636,3.43252 -1.13777,7.08877 -2.04757,8.125 -2.32691,2.65026 -2.38742,17.30744 -0.0878,21.25905 1.00023,1.71875 2.94233,5.51462 4.31578,8.43527 2.95532,6.2845 8.946,12.44985 14.33966,14.75778 2.1303,0.91154 6.6064,3.94101 9.94688,6.73215 3.34049,2.79114 6.73312,5.0748 7.5392,5.0748 2.62329,0 13.74353,-11.71255 19.90399,-20.96415 6.81748,-10.2383 9.06096,-11.43241 7.90571,-4.20791 -0.67186,4.20161 -0.28718,5.33527 2.96524,8.73862 2.05549,2.15088 3.73726,4.47669 3.73726,5.16847 0,2.37533 9.04159,11.26497 11.45752,11.26497 1.32916,0 4.01093,0.82445 5.95953,1.8321 3.27439,1.69326 4.05126,1.58763 10.25042,-1.39376 3.68914,-1.77424 9.23214,-5.54628 12.31778,-8.38232 4.93306,-4.53401 5.66706,-4.86141 6.08094,-2.71233 0.3061,1.58942 -1.02934,3.77064 -3.81902,6.2377 -2.35933,2.08648 -4.94307,5.34048 -5.74163,7.23111 -0.79858,1.89062 -2.27455,3.4375 -3.27997,3.4375 -2.49658,0 -3.71223,2.28127 -2.19401,4.11725 1.6265,1.96692 0.3806,8.38275 -1.62785,8.38275 -0.85516,0 -3.65716,-1.42668 -6.22667,-3.17039 -5.51614,-3.74335 -8.05555,-3.28444 -13.84133,2.50134 -3.95851,3.95851 -4.1895,4.01981 -10.75306,2.8535 -13.87129,-2.46485 -12.86108,-2.02869 -10.56782,-4.56271 1.12499,-1.2431 1.72503,-3.09518 1.33342,-4.1157 -0.39161,-1.02053 0.15733,-2.577 1.21986,-3.45883 2.56931,-2.13234 2.39854,-7.02366 -0.4654,-13.3305 -2.78536,-6.13375 -4.82107,-7.71671 -5.92654,-4.60844 -0.44339,1.2467 -1.61512,3.21079 -2.60383,4.36465 -1.23001,1.43544 -1.46992,3.01434 -0.75977,5 0.57084,1.59614 1.0791,4.58958 1.12947,6.65208 0.26108,10.69196 0.65714,13.125 2.13655,13.125 0.86822,0 2.13385,1.26562 2.8125,2.8125 0.9885,2.25314 2.41478,2.88828 7.17141,3.19349 3.26562,0.20955 5.9375,0.82735 5.9375,1.37288 0,0.54555 -2.25,1.87573 -5,2.95595 -5.29125,2.07847 -6.44244,4.29722 -2.8125,5.42065 1.20312,0.37237 3.16424,1.19847 4.35804,1.83578 1.19379,0.63731 3.44379,1.17664 5,1.1985 1.5562,0.0219 3.92135,0.86562 5.25587,1.875 3.33088,2.51935 19.80314,2.54535 21.88693,0.0345 z m -25.36039,-12.24266 c -1.8513,-1.17014 -0.58486,-1.33008 7.92205,-1.00044 3.78125,0.14652 7.39892,0.76837 8.03929,1.38189 1.39459,1.33612 -13.81916,0.97255 -15.96134,-0.38145 z m 36.99942,-10.56974 c 1.16222,-1.1622 2.46408,-1.76213 2.89304,-1.33316 1.23023,1.23023 -0.65836,3.44626 -2.93704,3.44626 -1.9081,0 -1.90467,-0.16441 0.044,-2.1131 z m -2.82737,-9.86606 c 0,-1.08855 0.66796,-1.75652 1.48437,-1.48438 2.31778,0.77259 2.7022,3.46354 0.49479,3.46354 -1.08854,0 -1.97916,-0.89063 -1.97916,-1.97916 z m 40,-57.2495 c 0,-0.57033 13.45361,-7.02134 14.64304,-7.02134 0.45357,0 -0.79204,1.6875 -2.76804,3.75 -2.57629,2.68906 -4.76433,3.75 -7.73386,3.75 -2.27763,0 -4.14114,-0.2154 -4.14114,-0.47866 z m -98.75,-3.07069 c 0,-1.56689 6.23471,-4.10764 7.76254,-3.16339 0.78278,0.48379 0.10489,1.49544 -1.65616,2.47159 -3.43803,1.90568 -6.10638,2.20797 -6.10638,0.6918 z m 48.5,-29.20065 c 0.825,-0.825 1.5,-2.4806 1.5,-3.67913 0,-1.19851 1.03574,-2.91413 2.30163,-3.8125 1.26589,-0.89834 2.93307,-2.82405 3.70483,-4.27931 2.2018,-4.15179 14.70028,-5.19472 21.38491,-1.78447 5.9171,3.01867 14.13568,3.3589 16.36121,0.67731 0.90775,-1.09376 1.25431,-3.39999 0.82985,-5.52228 -0.51273,-2.56362 10e-4,-4.57286 1.73482,-6.77621 1.35501,-1.72261 3.36851,-5.93375 4.47445,-9.35807 1.84731,-5.71989 1.84741,-6.55353 10e-4,-10.25436 -1.85064,-3.70972 -1.84704,-4.37089 0.0456,-8.35944 1.13039,-2.38212 2.95101,-4.64621 4.04585,-5.03133 1.09483,-0.38511 3.00806,-1.57558 4.25164,-2.64548 1.24356,-1.06992 3.91544,-1.81923 5.9375,-1.66515 2.96755,0.22611 3.67646,-0.21552 3.67646,-2.29034 0,-1.41377 -1.26372,-4.37581 -2.80827,-6.58235 -1.54455,-2.20654 -2.89048,-4.18594 -2.99095,-4.39866 -0.1005,-0.21273 -2.34404,0.77165 -4.98572,2.1875 -6.18645,3.31573 -12.38528,3.53246 -11.06305,0.38677 2.85897,-6.80165 1.20682,-13.57094 -2.9873,-12.23977 -2.38952,0.75841 -7.66467,-5.21416 -7.66467,-8.67805 0,-2.40768 -5.81429,-4.76941 -9.84483,-3.99893 -2.08406,0.3984 -4.10814,-0.51255 -6.75119,-3.03838 -3.78506,-3.6172 -8.80596,-4.74077 -10.31002,-2.30716 -0.50518,0.81742 -3.50241,0.99488 -8.07183,0.47791 -6.45477,-0.73028 -7.98347,-0.43306 -13.65817,2.6555 l -6.38988,3.47781 -3.38867,-3.01821 c -1.86377,-1.66002 -4.03107,-3.81886 -4.81623,-4.79743 -1.19239,-1.48611 -1.78826,-1.22871 -3.61713,1.5625 -2.63638,4.02362 -3.65097,4.09909 -9.92197,0.73804 -3.43975,-1.8436 -6.05146,-2.37976 -8.94651,-1.83665 -2.31797,0.43485 -4.43345,0.20909 -4.88486,-0.52132 -1.23299,-1.99501 -7.06958,-1.52119 -9.61278,0.78037 -2.92505,2.64713 -2.91376,6.78558 0.0288,10.5752 3.0383,3.91287 7.4788,18.06168 7.40858,23.60607 -0.0305,2.40625 -0.89667,5.34284 -1.92486,6.52575 -1.0282,1.18291 -2.00862,5.04512 -2.17871,8.58268 -0.24042,5.00021 0.21267,6.87881 2.03548,8.43955 1.2896,1.10419 2.38914,2.86698 2.44342,3.91732 0.0866,1.67542 0.18624,1.67967 0.81243,0.0347 0.76919,-2.02065 2.8106,-3.70005 4.53512,-3.73086 0.58918,-0.01 0.73539,0.85605 0.32492,1.92574 -0.85413,2.22581 2.18869,10.24657 4.66698,12.30201 0.91389,0.75796 2.65732,4.09025 3.8743,7.40509 2.87165,7.82193 7.33076,10.29823 10.64122,5.90946 2.18023,-2.8904 2.3651,-2.9137 9.88407,-1.24561 5.64851,1.25311 7.66227,2.24891 7.66227,3.78896 0,2.92127 3.0825,5.16064 6.49631,4.71941 3.79182,-0.49009 6.00369,0.9979 6.00369,4.0388 0,3.23303 -3.11286,4.32859 -7.11625,2.50453 -1.76375,-0.80363 -3.49553,-1.17242 -3.84841,-0.81954 -0.95315,0.95316 2.38107,4.58096 5.29626,5.76261 3.47964,1.41043 3.71062,1.39719 5.4184,-0.3106 z m 51.5,-63.5 c 0,-0.6875 0.5293,-1.25 1.17622,-1.25 0.64693,0 1.52388,0.5625 1.94878,1.25 0.4249,0.6875 -0.10437,1.25 -1.17622,1.25 -1.07183,0 -1.94878,-0.5625 -1.94878,-1.25 z m -13.79474,-12.29456 c 0.8235,-1.60575 1.84011,-2.57674 2.25911,-2.15774 0.419,0.419 -0.25478,1.7328 -1.4973,2.91956 -2.15968,2.06278 -2.19321,2.02925 -0.76181,-0.76182 z m -137.57473,61.81351 c 1.97583,-2.38074 3.05596,-16.55624 1.72539,-22.64395 -1.08107,-4.94624 -2.78739,-6.1221 -4.2213,-2.90903 -0.40721,0.91247 -1.39293,2.78403 -2.19049,4.15903 -4.51506,7.78404 -6.46039,18.2181 -3.95859,21.23257 1.96402,2.36651 6.7409,2.45567 8.64499,0.16138 z m 180.60661,-4.20645 c -1.17983,-6.69249 -1.16269,-10.11956 0.17179,-34.375 1.30221,-23.66903 -1.06057,-22.54156 -3.15392,1.50497 -2.01567,23.15411 -0.8981,38.80753 2.77065,38.80753 0.81458,0 0.88914,-2.09345 0.21148,-5.9375 z M 254.94858,348.5322 c 1.10253,-1.32846 3.88128,-18.024 4.10303,-24.65216 0.0345,-1.03125 -0.74876,-5.36992 -1.74059,-9.6415 -0.99183,-4.27157 -1.54435,-9.12126 -1.22782,-10.77709 0.69148,-3.61725 -2.94315,-11.19039 -5.04043,-10.50224 -0.81904,0.26875 -1.66716,1.99212 -1.8847,3.82973 -0.21754,1.8376 -1.11473,3.3411 -1.99376,3.3411 -0.87903,0 -2.50065,0.99715 -3.60358,2.21587 -1.83123,2.02349 -1.84159,4.00423 -0.11937,22.8125 1.6355,17.86103 2.22655,20.88717 4.45009,22.78413 3.03994,2.59345 5.24146,2.77739 7.05712,0.58966 z m 133.56518,-52.87409 c 0.41619,-1.08456 -0.061,-2.78957 -1.06029,-3.78891 -1.58931,-1.58931 -2.09595,-1.50872 -4.04337,0.64316 -1.22453,1.35308 -1.85685,3.05809 -1.40518,3.78892 1.249,2.02092 5.65354,1.5857 6.50884,-0.64317 z"
         id="path3391"
         inkscape:connector-curvature="0" />
      <path
         style="fill:#5a241f"
         d="m 300.18604,607.01401 c -0.85176,-1.02632 -3.72357,-2.45167 -6.38179,-3.16746 -2.7672,-0.74512 -5.45927,-2.47137 -6.29794,-4.03845 -0.80565,-1.50536 -4.11451,-5.56437 -7.35303,-9.02003 -3.86511,-4.12428 -6.17108,-7.84484 -6.71148,-10.82865 -0.46504,-2.56774 -2.86325,-6.91892 -5.51165,-10 -6.95627,-8.09277 -11.50155,-15.63362 -11.50155,-19.08167 0,-1.68075 -1.33328,-4.64594 -2.96285,-6.5893 -4.67696,-5.5776 -8.28715,-13.15056 -8.28715,-17.38366 0,-2.29979 -1.02095,-4.81123 -2.5,-6.14975 -1.375,-1.24436 -2.5,-3.11973 -2.5,-4.16749 0,-2.54057 -2.33112,-9.98522 -4.50006,-14.37131 -0.96247,-1.94634 -1.74994,-5.38347 -1.74994,-7.63806 0,-2.31124 -1.36308,-6.10788 -3.125,-8.70422 -1.71875,-2.53272 -3.125,-5.52846 -3.125,-6.6572 0,-1.12874 -1.07649,-6.02563 -2.39219,-10.88198 -5.06695,-18.70245 -4.4821,-26.25325 1.06257,-13.7186 1.37036,3.09792 3.59749,7.03855 4.94917,8.75692 1.35168,1.71839 2.84638,4.92605 3.32157,7.12814 0.47518,2.20209 1.92433,6.0986 3.22031,8.65892 3.20647,6.33462 8.20387,19.76745 11.28915,30.34488 3.14372,10.77778 4.04765,11.83036 7.01381,8.1673 1.87134,-2.311 2.7779,-2.60595 4.7374,-1.54135 1.33276,0.72411 3.32876,1.59096 4.43555,1.92636 2.07659,0.62927 4.44264,12.21848 2.97826,14.5879 -0.81337,1.31605 1.71754,11.18758 3.34512,13.04729 0.5716,0.65313 1.03928,2.50842 1.03928,4.12289 0,1.61445 1.19277,5.29882 2.65061,8.1875 1.45784,2.88866 3.93355,7.78336 5.50159,10.87711 5.4087,10.67141 15.09019,16.58271 23.3019,14.22762 6.59421,-1.89118 5.48982,-5.20113 -3.47343,-10.41012 -11.55752,-6.71664 -11.73321,-6.94029 -11.71153,-14.90805 0.0243,-8.91579 1.76672,-11.99185 2.12137,-3.74497 0.50824,11.81823 4.85609,15.84925 12.71281,11.78637 5.13029,-2.65298 19.04364,-2.58544 24.27125,0.11775 7.68336,3.97315 10.87543,7.0305 10.87543,10.41641 0,3.59506 2.03179,6.26493 4.76766,6.26493 2.59518,0 11.37132,-10.18715 11.43108,-13.26893 0.0281,-1.45416 1.07505,-3.98541 2.32635,-5.625 7.13541,-9.34962 8.38728,-13.58226 8.64558,-29.23107 0.15069,-9.12933 -0.38735,-17.38808 -1.37472,-21.10172 l -1.6223,-6.1017 -2.86565,7.06051 c -1.5761,3.88327 -3.37464,7.37507 -3.99675,7.75956 -1.792,1.10751 -5.97389,-4.77857 -6.01966,-8.47278 -0.0729,-5.88389 -2.21473,-9.76887 -5.38565,-9.76887 -1.59827,0 -3.56287,0.65692 -4.36579,1.45985 -1.44136,1.44136 -5.36063,3.07005 -16.73644,6.95498 -5.37706,1.83632 -6.42635,1.82351 -13.75,-0.16796 -4.36079,-1.18573 -9.33496,-2.26075 -11.05371,-2.38887 l -3.125,-0.23294 0.41315,10.625 c 0.22723,5.84375 -0.0947,11.9671 -0.71546,13.60744 -1.11329,2.94198 -1.15052,2.92502 -2.74386,-1.25 -1.58999,-4.16621 -5.93249,-13.16339 -11.09252,-22.98244 -1.44516,-2.75 -2.92494,-6.00864 -3.28839,-7.2414 -0.5479,-1.85839 -1.1095,-2.00129 -3.28643,-0.83622 -1.44408,0.77285 -2.99931,1.03005 -3.45605,0.57156 -0.45674,-0.45849 -0.82508,-4.58219 -0.81854,-9.16378 0.0132,-9.20941 3.46423,-20.20516 6.34148,-20.20516 0.97439,0 1.77162,0.62192 1.77162,1.38205 0,0.76014 1.43602,3.08868 3.19115,5.17454 1.75514,2.08585 3.50858,5.37957 3.89654,7.31936 0.52658,2.63291 1.78945,3.88468 4.98224,4.93839 3.39468,1.12034 4.12019,1.90513 3.51728,3.80474 -0.52409,1.65126 -0.0547,2.61338 1.5141,3.10332 1.25053,0.39055 3.25043,1.23154 4.44423,1.86885 1.19379,0.63731 3.44379,1.17664 5,1.1985 1.5562,0.0219 3.92135,0.86562 5.25587,1.875 3.33088,2.51935 19.80314,2.54535 21.88693,0.0345 0.82195,-0.99039 2.30423,-1.48995 3.29397,-1.11015 0.98974,0.3798 2.62895,0.002 3.64269,-0.83915 1.01374,-0.84133 2.62554,-1.22946 3.58176,-0.86252 2.18069,0.83681 4.54324,-1.43235 4.54324,-4.36367 0,-2.09081 1.52909,-2.80736 8.11536,-3.80291 1.4711,-0.22236 2.77382,-1.6492 3.18289,-3.48616 0.38089,-1.71035 2.23487,-6.30105 4.11996,-10.20156 2.36764,-4.89893 3.1775,-8.08769 2.61912,-10.3125 -0.44459,-1.77132 -0.28292,-3.22063 0.35927,-3.22063 1.69467,0 5.98544,4.98114 8.39351,9.74403 1.97275,3.90186 1.94975,4.49501 -0.43624,11.25 -1.38533,3.92203 -2.45838,8.25597 -2.38457,9.63097 0.0739,1.375 -0.0125,3.0625 -0.19056,3.75 -0.72635,2.79548 0.0934,4.10902 2.21752,3.55354 1.4925,-0.3903 2.81898,0.48271 3.95299,2.60162 2.14711,4.01194 4.62629,2.37856 5.78789,-3.8133 0.59744,-3.18461 1.19451,-3.95726 2.32985,-3.01501 1.08816,0.9031 2.36544,0.37397 4.44767,-1.84246 1.60661,-1.71017 3.66683,-3.10939 4.57823,-3.10939 1.05088,0 1.65711,-1.55316 1.65711,-4.24551 0,-3.24954 0.98091,-5.10675 4.18131,-7.91675 2.29973,-2.01919 5.2335,-5.45245 6.51951,-7.62949 1.28602,-2.17704 2.77942,-3.95825 3.31869,-3.95825 1.32941,0 1.25218,5.93455 -0.088,6.76284 -0.58769,0.3632 -2.34077,4.19327 -3.89577,8.51126 -1.555,4.318 -3.53759,8.69465 -4.40575,9.7259 -3.1049,3.68814 -6.1097,10.71832 -6.94548,16.25 -1.6863,11.16082 -4.82239,19.8603 -10.76156,29.85245 -8.43951,14.19875 -12.41603,21.11533 -15.92631,27.70156 -4.75907,8.92923 -29.03519,32.44599 -33.4937,32.44599 -0.97631,0 -2.867,0.82586 -4.20153,1.83525 -1.68646,1.27557 -5.71521,1.84736 -13.21086,1.875 -8.02411,0.0296 -11.18273,0.51966 -12.34055,1.91475 -1.95772,2.35891 -3.04067,2.36085 -4.99256,0.009 z m 47.49256,-50.75538 c 0,-5.84797 1.80301,-9.87859 4.41897,-9.87859 2.11477,0 2.47368,3.20528 0.49582,4.42766 -0.73438,0.45388 -1.00288,1.69131 -0.59667,2.74988 1.00224,2.61176 -0.26241,6.18767 -2.49071,7.04275 -1.41712,0.54381 -1.82741,-0.43099 -1.82741,-4.3417 z m -38.43464,-78.49188 c -2.88972,-1.93367 -13.79636,-27.07239 -12.36611,-28.50264 1.13896,-1.13894 4.21751,1.89416 5.05433,4.97971 0.96749,3.56733 10.47479,10.66759 16.51846,12.33633 2.58833,0.71468 6.56723,0.99738 8.84201,0.62824 4.86391,-0.7893 5.53002,1.27256 1.56915,4.8571 -2.82706,2.55846 -17.80818,6.91221 -19.61784,5.70126 z m 106.76108,-48.55582 c -0.74387,-11.30049 -3.74133,-31.43473 -4.75991,-31.97269 -0.24284,-0.12826 -1.69952,-0.93633 -3.23707,-1.7957 -4.0996,-2.29138 -7.55114,-1.90864 -8.45446,0.9375 -0.43641,1.375 -1.8047,2.5 -3.04066,2.5 -1.23595,0 -3.6774,-1.125 -5.42543,-2.5 -4.10112,-3.22594 -5.19572,-3.14965 -7.60685,0.5302 -3.62185,5.52764 -10.1343,5.15783 -14.37176,-0.81611 -1.36234,-1.92062 -2.61656,-2.23342 -6.39536,-1.59499 -4.05315,0.68477 -4.79366,0.43855 -5.37578,-1.78746 -0.45377,-1.73522 -1.69362,-2.58164 -3.78162,-2.58164 -2.26605,0 -3.31743,-0.84031 -3.88606,-3.10596 -0.91668,-3.65232 -4.90467,-4.99483 -11.68237,-3.93277 -2.57626,0.4037 -10.17997,1.24948 -16.89715,1.87952 -13.22422,1.24033 -15.5582,2.31528 -16.15026,7.43818 -0.45153,3.90695 -2.9482,4.10653 -15.3867,1.22995 -7.27738,-1.68298 -7.67405,-1.64022 -13.36381,1.4408 l -5.8638,3.17528 -4.50899,-2.41681 c -3.84756,-2.06228 -5.10909,-2.1998 -8.59994,-0.9375 -5.84045,2.11193 -6.83442,1.91744 -11.60444,-2.27069 -4.46184,-3.91755 -9.29329,-4.8519 -11.3114,-2.1875 -1.77914,2.34891 -5.49162,16.75831 -6.65295,25.82237 -1.10684,8.63881 -4.40908,14.49013 -8.17761,14.49013 -2.74741,0 -4.62368,-4.85109 -6.76852,-17.5 -0.81604,-4.8125 -1.97945,-10.4375 -2.58536,-12.5 -0.6059,-2.0625 -1.6408,-9.16859 -2.29977,-15.79131 -0.86651,-8.70848 -2.08941,-13.80017 -4.41827,-18.39594 -3.19802,-6.31099 -4.07953,-11.41185 -2.28264,-13.20841 0.51563,-0.51553 1.08335,-10.8749 1.26161,-23.02083 0.4414,-30.07507 0.91491,-40.16845 2.09155,-44.58351 6.3467,-23.81458 20.09753,-51.07332 30.41247,-60.28768 8.43625,-7.53612 13.08511,-11.04435 17.03541,-12.85568 2.27107,-1.04135 6.14644,-3.43197 8.61193,-5.3125 2.4655,-1.88053 5.10008,-3.41914 5.85463,-3.41914 0.75455,0 4.07047,-2.7851 7.36871,-6.18912 4.69079,-4.84122 6.6011,-6.03109 8.77154,-5.46351 1.80411,0.47179 3.73756,-0.1428 5.52719,-1.75693 1.51385,-1.3654 4.43996,-3.33667 6.50246,-4.3806 9.31746,-4.716 12.75926,-6.63526 16.72419,-9.32593 6.39027,-4.33656 11.86057,-3.63256 18.4675,2.37668 2.93883,2.673 8.90453,4.54617 18.48365,5.80371 5.58437,0.73312 6.27038,1.17929 7.16861,4.66237 1.32399,5.13413 4.72045,7.9946 11.22902,9.45698 6.60104,1.48315 12.79563,6.04634 15.48714,11.40844 2.11333,4.21024 20.96828,21.87335 25.51496,23.90214 3.93744,1.75693 11.29993,14.65456 11.29993,19.79525 0,5.02479 2.12531,11.98741 4.50427,14.7562 2.07017,2.4094 5.43423,16.44001 5.53363,23.07932 0.0411,2.75 0.76051,6.605 1.59854,8.56666 1.07393,2.51391 1.21561,6.01902 0.48,11.875 -1.39602,11.11329 -1.44519,16.59349 -0.32295,35.99874 l 0.95076,16.44039 -4.1195,8.55961 c -3.91401,8.13261 -4.13825,9.37023 -4.49529,24.8096 -0.32319,13.976 -3.89529,40.8075 -5.66886,42.58106 -0.31939,0.31939 -0.94226,-4.91193 -1.38416,-11.62517 z M 276.4286,385.13004 c -2.46361,-1.59211 -7.5,-1.59211 -7.5,0 0,0.6875 2.10937,1.24139 4.6875,1.23086 3.48673,-0.0142 4.20719,-0.32955 2.8125,-1.23086 z m 54.75,-4 c 0.825,-0.825 1.5,-2.50544 1.5,-3.73433 0,-3.28609 9.4881,-8.91517 13.38039,-7.93827 1.70981,0.42914 3.89093,0.13109 4.84696,-0.66234 1.04632,-0.86837 3.61094,-1.13858 6.44294,-0.67886 18.68442,3.0331 20.32971,2.53852 20.32971,-6.1112 0,-3.08059 0.7502,-5.9415 1.78271,-6.7984 0.98049,-0.81374 2.73115,-4.49485 3.89035,-8.18025 1.94023,-6.1685 1.94888,-7.01895 0.10888,-10.70721 -1.8372,-3.68275 -1.83264,-4.35645 0.0565,-8.3376 1.13038,-2.38212 2.95101,-4.64621 4.04585,-5.03133 1.09482,-0.38511 3.00806,-1.57558 4.25163,-2.64548 1.24357,-1.06992 3.91544,-1.81923 5.9375,-1.66515 2.96755,0.22611 3.67647,-0.21552 3.67647,-2.29034 0,-1.41376 -1.26373,-4.37581 -2.80828,-6.58235 -1.54455,-2.20654 -2.89047,-4.18594 -2.99095,-4.39866 -0.1005,-0.21273 -2.34404,0.77165 -4.98571,2.1875 -6.18645,3.31573 -12.38529,3.53246 -11.06305,0.38677 2.85896,-6.80165 1.20681,-13.57094 -2.9873,-12.23977 -2.38945,0.75841 -7.6646,-5.21416 -7.6646,-8.67805 0,-2.27323 -4.83553,-4.39468 -10.01698,-4.39468 -2.11198,0 -5.00027,-1.29382 -6.97615,-3.125 -3.46228,-3.20874 -8.48603,-4.13352 -9.91291,-1.82479 -0.50518,0.81742 -3.50241,0.99488 -8.07183,0.47791 -6.45477,-0.73028 -7.98347,-0.43306 -13.65817,2.6555 l -6.38988,3.47781 -3.38867,-3.01821 c -1.86377,-1.66002 -3.98111,-3.75054 -4.70521,-4.6456 -1.04483,-1.29151 -1.87216,-0.98835 -4.00873,1.46892 -2.88962,3.32335 -5.93665,3.2729 -11.30345,-0.18714 -1.85004,-1.19274 -4.26716,-1.53577 -7.09003,-1.00619 -2.48565,0.46631 -4.61719,0.26284 -5.07928,-0.48485 -1.23299,-1.99501 -7.06958,-1.52119 -9.61278,0.78037 -2.97651,2.69371 -2.90261,6.81014 0.1929,10.74545 2.65806,3.37918 6.08216,14.6787 6.90204,22.77668 0.33935,3.35178 -0.13993,5.67604 -1.47453,7.15076 -3.03189,3.35019 -3.19652,14.53439 -0.25108,17.05636 1.28961,1.10419 2.38915,2.86698 2.44342,3.91732 0.0866,1.67542 0.18625,1.67967 0.81243,0.0347 0.7692,-2.02065 2.81061,-3.70005 4.53513,-3.73086 0.58918,-0.01 0.73539,0.85605 0.32491,1.92574 -0.88046,2.29444 2.23896,10.32775 4.77702,12.30201 0.9744,0.75796 2.38824,3.73857 3.14187,6.62359 1.71488,6.56487 6.77918,10.9253 11.28211,9.71405 1.73407,-0.46645 6.08749,-0.99952 9.67429,-1.18458 5.63678,-0.29085 6.77842,0.0557 8.41602,2.55505 1.31439,2.006 3.33671,3.01073 6.60358,3.28076 3.79016,0.31329 4.78703,0.9391 5.10913,3.20733 0.50554,3.56013 -2.60197,4.87884 -6.89142,2.92443 -1.76375,-0.80362 -3.49554,-1.17241 -3.84841,-0.81953 -0.95315,0.95316 2.38107,4.58096 5.29626,5.76261 3.47964,1.41043 3.71061,1.39719 5.4184,-0.3106 z m 51.5,-63.5 c 0,-0.6875 0.5293,-1.25 1.17622,-1.25 0.64693,0 1.52388,0.5625 1.94878,1.25 0.4249,0.6875 -0.10437,1.25 -1.17622,1.25 -1.07183,0 -1.94878,-0.5625 -1.94878,-1.25 z m -151.36947,49.51895 c 1.97583,-2.38074 3.05596,-16.55624 1.72539,-22.64395 -1.08107,-4.94624 -2.78739,-6.1221 -4.2213,-2.90903 -0.40721,0.91247 -1.39293,2.78403 -2.19049,4.15903 -4.51506,7.78404 -6.46039,18.2181 -3.95859,21.23257 1.96402,2.36651 6.7409,2.45567 8.64499,0.16138 z m 180.60661,-4.20645 c -1.17983,-6.69249 -1.16269,-10.11956 0.17179,-34.375 1.30221,-23.66903 -1.06057,-22.54156 -3.15392,1.50497 -2.01567,23.15411 -0.8981,38.80753 2.77065,38.80753 0.81458,0 0.88914,-2.09345 0.21148,-5.9375 z M 254.94858,348.5322 c 0.72935,-0.87882 1.93679,-6.3632 2.6832,-12.1875 1.74701,-13.63217 1.74537,-13.45955 0.18407,-19.33966 -0.73019,-2.75 -1.34103,-7.69981 -1.35743,-10.99957 -0.0507,-10.19979 -6.25646,-18.03443 -7.30035,-9.21653 -0.21754,1.8376 -1.11473,3.3411 -1.99376,3.3411 -0.87903,0 -2.50065,0.99715 -3.60358,2.21587 -1.83123,2.02349 -1.84159,4.00423 -0.11937,22.8125 1.6355,17.86103 2.22655,20.88717 4.45009,22.78413 3.03994,2.59345 5.24146,2.77739 7.05712,0.58966 z m 133.56518,-52.87409 c 0.41619,-1.08456 -0.061,-2.78957 -1.06029,-3.78891 -1.58931,-1.58931 -2.09595,-1.50872 -4.04337,0.64316 -1.22453,1.35308 -1.85685,3.05809 -1.40518,3.78892 1.249,2.02092 5.65354,1.5857 6.50884,-0.64317 z"
         id="path3389"
         inkscape:connector-curvature="0" />
      <path
         style="fill:#271c17"
         d="m 301.27235,608.3592 c -0.0859,-0.40104 -0.22656,-1.41346 -0.3125,-2.24983 -0.0859,-0.83637 -2.82813,-2.27532 -6.09375,-3.19766 -3.26563,-0.92233 -5.9375,-2.24854 -5.9375,-2.94712 0,-0.69857 -3.01899,-4.46276 -6.70888,-8.36485 -4.76401,-5.03799 -6.96074,-8.4861 -7.57769,-11.89441 -0.53275,-2.94313 -2.68421,-6.81125 -5.56202,-10 -5.71489,-6.33235 -11.40141,-16.00298 -11.40141,-19.38946 0,-1.37172 -1.33328,-4.08406 -2.96285,-6.02742 -4.93184,-5.88156 -8.28715,-13.23356 -8.28715,-18.15842 0,-3.38271 -0.68603,-5.02918 -2.5,-5.99999 -1.375,-0.73588 -2.5,-2.26261 -2.5,-3.39274 0,-2.41089 -2.09774,-9.41547 -4.41204,-14.73226 -0.89776,-2.0625 -1.89817,-6.08001 -2.22312,-8.9278 -0.32495,-2.84779 -1.72144,-6.78529 -3.10333,-8.75 -2.30489,-3.27701 -4.91006,-14.1972 -3.38695,-14.1972 2.23435,0 21.87544,50.67294 21.87544,56.43744 0,2.69517 4.86044,12.31256 6.22253,12.31256 0.6403,0 1.53353,-1.96875 1.98494,-4.375 0.79233,-4.22345 3.04253,-6.17858 3.04253,-2.64354 0,2.13289 3.47332,13.80857 5.62052,18.89354 0.87092,2.0625 2.77509,6.43692 4.23149,9.72094 1.45639,3.28401 2.64799,7.01201 2.64799,8.28445 0,1.27242 0.84375,3.01375 1.875,3.86961 1.03125,0.85586 1.875,2.34995 1.875,3.32019 0,0.97024 1.64029,3.29199 3.64508,5.15943 11.34174,10.56478 12.68285,11.52038 16.16807,11.52038 1.99691,0 4.33099,0.84375 5.18685,1.875 2.28479,2.753 7.07847,2.37194 7.86219,-0.625 0.77447,-2.9616 3.38595,-3.1175 10.52988,-0.62861 2.8969,1.00926 6.08814,1.51994 7.09164,1.13486 1.09629,-0.42069 2.42818,0.42773 3.33683,2.12555 1.30755,2.44319 1.13257,3.13314 -1.29262,5.09695 -2.19172,1.77475 -5.02896,2.27544 -12.9789,2.29039 -9.83493,0.0185 -13.7311,0.95929 -13.31203,3.21436 0.22075,1.18791 -2.39179,2.41911 -2.64324,1.24566 z m 55.15625,-29.83381 c 0,-0.88256 1.96875,-4.66046 4.375,-8.39535 2.40625,-3.73489 4.37741,-7.37216 4.38035,-8.08285 0.002,-0.71069 1.68804,-3.8234 3.74465,-6.91715 2.05661,-3.09375 3.7417,-6.9276 3.74465,-8.51968 0.002,-1.59207 0.68247,-4.12332 1.51006,-5.625 1.6759,-3.04096 1.78422,-3.52922 2.0549,-9.26401 0.23593,-4.99836 5.32033,-9.07699 8.26689,-6.63156 2.61285,2.16848 4.42057,0.50179 4.44264,-4.09602 0.0209,-4.34721 1.83051,-8.18075 3.21039,-6.80088 0.89507,0.89509 -1.47685,11.05666 -3.52873,15.11745 -0.78966,1.56278 -2.01531,2.0829 -3.80528,1.61481 -4.12865,-1.07966 -5.87662,1.16229 -4.53996,5.82297 0.99601,3.47287 0.41595,5.39904 -4.49208,14.9167 -7.11422,13.79587 -10.67849,20.16922 -11.72474,20.96522 -0.45181,0.34375 -1.80584,2.17187 -3.00893,4.0625 -2.30331,3.61958 -4.62981,4.54059 -4.62981,1.83285 z m -38.55566,-1.9613 c -2.98688,-1.13248 -5.35385,-2.62155 -5.25997,-3.30905 0.2438,-1.78522 10.15947,-0.7763 13.50313,1.37396 6.6013,4.24519 1.1962,5.51405 -8.24316,1.93509 z m -31.77701,-64.6036 c -3.92047,-5.0321 -4.66733,-6.95801 -4.66733,-12.03559 l 0,-6.04486 4.93179,0 c 4.14751,0 5.19373,0.54665 6.57889,3.4375 0.90591,1.89062 2.76472,3.57397 4.13071,3.74079 6.71652,0.8202 11.46418,2.07416 13.69925,3.61829 1.44638,0.99927 5.73983,1.70342 10.38626,1.70342 8.24724,0 9.51325,1.57769 2.4759,3.08541 -6.26553,1.34238 -14.39888,0.82513 -19.31329,-1.22825 -7.99595,-3.34091 -11.18164,-1.88971 -12.75663,5.81113 l -0.79823,3.90287 -4.66732,-5.99071 z m 67.46922,4.79804 c -0.32591,-0.55193 -1.0077,-2.97224 -1.5151,-5.37849 -0.5074,-2.40625 -1.66963,-5.83801 -2.58273,-7.62614 -2.28055,-4.466 0.66817,-8.94424 5.51964,-8.38272 2.77843,0.32157 3.49298,1.22406 4.40328,5.56143 1.58025,7.5295 -3.14439,20.36564 -5.82509,15.82592 z M 273.9286,489.42286 c 0,-1.96448 2.77753,-5.51883 3.81272,-4.87906 2.28222,1.41049 1.30096,5.58624 -1.31272,5.58624 -1.375,0 -2.5,-0.31822 -2.5,-0.70718 z m 39.05976,-16.44076 c -2.81026,-0.52572 -6.15788,-4.92061 -4.79,-6.2885 0.39728,-0.39726 3.81488,0.32889 7.59466,1.61368 3.77981,1.28478 6.45346,2.71978 5.94147,3.18887 -1.46985,1.34671 -5.6731,2.06083 -8.74613,1.48595 z m -94.67177,-50.66456 c -0.29346,-0.85938 -1.15418,-5.13259 -1.91272,-9.49601 -0.75854,-4.36344 -1.978,-9.42594 -2.70991,-11.25 -0.73191,-1.82408 -2.05391,-8.94149 -2.93779,-15.81649 -0.88387,-6.875 -2.48105,-15.03125 -3.54929,-18.125 -3.36467,-9.74455 -5.05149,-35.33237 -3.39293,-51.46829 0.80031,-7.78619 1.57539,-17.25046 1.72238,-21.03171 0.21369,-5.49663 0.68902,-6.87816 2.37087,-6.89079 2.5131,-0.0189 8.5214,-5.39009 8.5214,-7.61787 0,-2.28242 -4.80951,-3.45554 -6.93499,-1.69156 -2.36833,1.96555 -2.30086,1.34255 0.73271,-6.76539 1.49608,-3.99864 3.85842,-7.6682 5.72303,-8.88994 2.0402,-1.33679 2.90607,-2.78218 2.42214,-4.04327 -0.93759,-2.44333 2.66651,-6.60118 5.72203,-6.60118 1.25259,0 3.19886,-1.40625 4.32503,-3.125 1.12616,-1.71875 2.4949,-3.125 3.04163,-3.125 0.54674,0 3.29454,-1.50617 6.10624,-3.34704 5.8228,-3.8123 6.94767,-7.16127 1.98718,-5.91627 -4.48207,1.12493 -4.13148,-2.5512 0.625,-6.55351 2.55255,-2.14783 3.75,-4.29383 3.75,-6.72053 0,-1.96081 0.59992,-3.93588 1.33316,-4.38905 2.11293,-1.30586 2.93135,0.4253 1.19191,2.52119 -0.90024,1.08473 -1.03455,1.90521 -0.31186,1.90521 0.69812,0 1.59309,-0.84375 1.98882,-1.875 0.39573,-1.03125 2.14341,-1.875 3.88374,-1.875 1.74033,0 3.16423,-0.5625 3.16423,-1.25 0,-0.6875 0.84375,-1.25 1.875,-1.25 2.12271,0 2.51419,-1.95741 0.625,-3.125 -2.40326,-1.4853 -1.18552,-2.83007 7.48863,-8.26981 4.80625,-3.01411 8.74375,-6.11862 8.75,-6.89893 0.0165,-2.06342 5.69038,-5.45626 9.1245,-5.45626 1.6231,0 4.27219,-1.40625 5.88687,-3.125 1.61468,-1.71875 3.48558,-3.125 4.15756,-3.125 0.67198,0 5.67599,-2.56919 11.12004,-5.70931 5.44404,-3.14012 10.84306,-5.70274 11.99782,-5.69472 6.60502,0.0459 10.59715,1.29326 13.7226,4.28762 1.93258,1.85153 4.56807,3.36641 5.85663,3.36641 3.95184,0 10.64535,2.90877 10.64535,4.62611 0,0.89314 0.5625,1.62389 1.25,1.62389 0.6875,0 1.25,-0.885 1.25,-1.96666 0,-3.01532 4.3117,-1.57549 4.76449,1.59103 0.55987,3.91531 9.7895,11.93566 12.67966,11.01835 2.99685,-0.95116 13.80585,6.27366 13.80585,9.22795 0,1.20645 1.40625,3.51465 3.125,5.12933 1.71875,1.61468 3.125,3.7371 3.125,4.71648 0,0.97938 0.7647,3.55321 1.69934,5.71961 0.93463,2.1664 2.32882,5.48578 3.0982,7.37641 1.74602,4.29059 3.95246,4.46504 3.95246,0.3125 0,-1.73077 0.725,-3.125 1.625,-3.125 2.47621,0 4.625,2.68204 4.625,5.77277 0,1.52502 0.36074,3.71283 0.80164,4.8618 0.68786,1.79253 1.21662,1.60607 3.72555,-1.31373 2.6996,-3.14173 2.9907,-3.22222 3.79467,-1.0493 0.47894,1.2944 1.22275,2.63471 1.65294,2.97846 3.03751,2.42718 6.1068,10.52343 6.8712,18.125 0.56852,5.65374 1.67372,9.63465 3.12327,11.25 1.23387,1.375 2.5841,3.90625 3.00052,5.625 0.41642,1.71875 0.4342,2.42187 0.0395,1.5625 -0.3947,-0.85938 -1.57838,-1.5625 -2.6304,-1.5625 -1.56669,0 -1.75567,1.04759 -1.04449,5.79008 0.47755,3.18454 1.34951,6.98141 1.9377,8.4375 0.98127,2.4292 1.07595,2.36407 1.14865,-0.79008 0.0852,-3.6961 2.57007,-4.89398 2.593,-1.25 0.008,1.20312 0.38229,4.4375 0.83272,7.1875 0.77645,4.74036 0.69957,4.90264 -1.48052,3.125 -2.14016,-1.74508 -2.24235,-1.65845 -1.4748,1.25 0.45359,1.71875 0.841,3.6875 0.86091,4.375 0.0199,0.6875 0.59009,0.40625 1.26706,-0.625 3.23427,-4.92684 5.09874,8.20306 2.30349,16.22153 -1.08236,3.10483 -1.03734,8.57498 0.18625,22.63036 l 1.61363,18.53578 -4.52094,9.27139 c -2.4865,5.09927 -4.92499,11.73392 -5.41884,14.74367 -0.77956,4.75087 -1.00565,5.06031 -1.71507,2.34727 -0.44944,-1.71875 -0.55327,-6.30012 -0.23073,-10.18085 0.79788,-9.60006 -0.59324,-17.7327 -3.63269,-21.23722 -2.31165,-2.66535 -2.44146,-3.83542 -1.50457,-13.56198 0.56395,-5.85473 1.02535,-16.5512 1.02535,-23.76995 0,-12.53858 -0.12187,-13.14235 -2.72793,-13.51335 -1.74948,-0.24906 -3.22542,0.54122 -4.11498,2.20339 -1.12468,2.10147 -1.85005,2.34396 -3.83458,1.28187 -1.34612,-0.72042 -2.45612,-2.27445 -2.46665,-3.45339 -0.0395,-4.42636 -2.00654,-5.88592 -5.67787,-4.21314 -3.90294,1.77828 -5.33069,1.06408 -3.14283,-1.57214 2.51646,-3.03214 0.41518,-12.22455 -3.83357,-16.77072 -4.50997,-4.82564 -6.77598,-4.95777 -11.26517,-0.65685 l -3.45038,3.30567 -1.45789,-3.19973 c -1.50164,-3.29573 -4.35565,-4.61483 -10.04896,-4.64454 -1.79894,-0.009 -6.20772,-1.2376 -9.79728,-2.72935 -6.17394,-2.56577 -7.21261,-2.63291 -19.22919,-1.2429 -18.30998,2.118 -19.29991,2.01697 -23.41666,-2.39002 -2.65829,-2.84572 -4.26635,-3.63116 -6.18649,-3.02173 -1.427,0.45291 -3.3843,0.16803 -4.34957,-0.63307 -2.24128,-1.8601 -6.505,-0.527 -8.15095,2.54848 -1.00321,1.87452 -2.12977,2.21693 -5.31117,1.61428 -2.22083,-0.42069 -4.92137,-1.21396 -6.00119,-1.76282 -6.5317,-3.32 -22.18326,7.10964 -20.5335,13.6828 0.67139,2.67501 0.51579,2.88538 -1.12618,1.52267 -1.04786,-0.86964 -2.25485,-2.68284 -2.68221,-4.02931 -0.43687,-1.37646 -1.68924,-2.29829 -2.8609,-2.10582 -1.14615,0.18828 -2.84992,-0.13758 -3.78615,-0.72412 -2.47785,-1.55235 -3.88129,1.40773 -3.90361,8.23328 -0.0143,4.37304 -1.0172,7.45999 -3.96342,12.19946 -3.62139,5.82559 -3.83064,6.72776 -2.55612,11.02056 0.76349,2.57154 2.0047,12.26929 2.75824,21.55054 1.53932,18.95944 2.3894,20.60438 11.39198,22.04395 3.5651,0.57007 4.85018,1.37609 4.85018,3.04204 0,3.02035 2.18904,4.2282 4.375,2.41401 0.97102,-0.80588 2.34618,-1.10634 3.05593,-0.66769 0.7698,0.47576 0.99009,0.0149 0.54602,-1.14238 -0.87003,-2.26725 0.009,-2.43657 3.35523,-0.64596 3.09848,1.65827 3.08018,3.94101 -0.0473,5.89413 -3.75056,2.34225 -1.8492,5.06218 3.48642,4.9874 2.53201,-0.0355 5.86927,0.36986 7.41615,0.90078 1.81383,0.62253 2.8125,0.46968 2.8125,-0.43049 0,-0.76769 -0.75626,-1.39579 -1.68058,-1.39579 -0.92431,0 -3.23254,-1.33356 -5.1294,-2.96349 l -3.44882,-2.96348 2.88107,-2.01798 c 2.66666,-1.8678 3.07164,-1.85535 5.4419,0.16735 1.40845,1.20193 4.52958,3.23396 6.93583,4.51562 2.40625,1.28168 6.43969,3.93679 8.96319,5.90024 2.5235,1.96346 7.36838,4.66578 10.76639,6.00515 7.80584,3.07678 14.5462,7.14109 13.18677,7.9514 -0.57274,0.3414 -4.54968,1.02037 -8.83762,1.5088 -6.24587,0.71148 -8.23966,1.49675 -10.02583,3.94877 l -2.22954,3.06067 -5.59918,-2.66592 c -3.07955,-1.46627 -7.69741,-3.74088 -10.26191,-5.05471 -2.5645,-1.31382 -7.11665,-3.04509 -10.11591,-3.84727 -4.80809,-1.28596 -6.10487,-1.14699 -10.96227,1.17484 -3.03,1.44834 -7.03289,3.00277 -8.89532,3.45431 -1.86242,0.45154 -4.00417,1.56556 -4.75944,2.4756 -0.94639,1.14034 -3.39058,1.47111 -7.86377,1.06424 -3.56981,-0.32471 -7.201,-0.10238 -8.06933,0.49406 -1.87196,1.28585 -5.93594,15.58369 -7.18887,25.2918 -0.94489,7.3213 -2.33102,10 -5.17465,10 -0.96864,0 -2.00127,-0.70312 -2.29472,-1.5625 z m 15.57265,-55.3125 c 2.14234,-4.32738 2.34909,-16.26106 0.73013,-42.14336 -0.62434,-9.98135 -1.55806,-16.84317 -2.235,-16.42479 -2.04776,1.26558 -6.15326,12.09766 -7.27446,19.19315 -0.59749,3.78125 -2.51397,12.18905 -4.25883,18.684 -3.07197,11.43487 -4.10857,22.46325 -2.283,24.28881 0.48922,0.48923 3.7189,0.7236 7.17708,0.52084 5.57693,-0.32699 6.49741,-0.79249 8.14408,-4.11865 z m 16.28936,-0.625 c 0,-0.6875 -0.5625,-1.25 -1.25,-1.25 -0.6875,0 -1.25,0.5625 -1.25,1.25 0,0.6875 0.5625,1.25 1.25,1.25 0.6875,0 1.25,-0.5625 1.25,-1.25 z m 156.5,-74 c -1.16666,-1.16667 -1.5,-0.83333 -1.5,1.5 0,2.33334 0.33334,2.66666 1.5,1.5 1.16666,-1.16667 1.16666,-1.83333 0,-3 z m -184.3125,-5.40579 c 1.54687,-3.79628 2.8125,-8.66139 2.8125,-10.81136 l 0,-3.90905 -3.72725,5.5006 c -2.67074,3.94141 -3.73371,7.00647 -3.75,10.8131 -0.0125,2.92187 0.39912,5.31172 0.91475,5.31076 0.51562,-9.6e-4 2.20312,-3.10778 3.75,-6.90405 z m 20.67571,-12.34816 c 0.93313,-5.75018 0.0725,-8.41965 -3.58684,-11.12538 -3.72438,-2.75383 -6.09797,-1.77435 -4.21703,1.7402 0.77003,1.43883 1.93836,2.08575 2.81588,1.55919 1.03549,-0.62135 1.00463,-0.28853 -0.0997,1.07509 -1.12458,1.38867 -1.24755,2.85159 -0.41419,4.92745 0.65189,1.62382 1.50829,3.97243 1.90312,5.21913 1.03402,3.26502 2.78614,1.61177 3.59873,-3.39568 z M 226.4286,260.20381 c 0,-3.14387 -2.01775,-4.38347 -2.99402,-1.83936 -1.1975,3.12064 -0.89714,4.26559 1.11902,4.26559 1.03125,0 1.875,-1.0918 1.875,-2.42623 z m 173.10231,-6.28706 c 0.95169,-1.53987 -2.73214,-8.78671 -4.46659,-8.78671 -2.11084,0 -6.13572,2.48875 -6.13572,3.79398 0,0.66331 0.75657,1.20602 1.68126,1.20602 0.9247,0 2.69938,1.125 3.94374,2.5 2.50259,2.76533 3.84845,3.11326 4.97731,1.28671 z M 252.6786,246.38004 c 0,-0.6875 -0.5625,-1.25 -1.25,-1.25 -0.6875,0 -1.25,0.5625 -1.25,1.25 0,0.6875 0.5625,1.25 1.25,1.25 0.6875,0 1.25,-0.5625 1.25,-1.25 z m 101.02915,-4.16608 c 0.29286,-1.51005 -0.48164,-2.08392 -2.8125,-2.08392 -3.50443,0 -4.06274,1.15391 -1.70103,3.51562 1.92094,1.92094 3.99064,1.26442 4.51353,-1.4317 z m -37.69894,-12.6249 c -0.41346,-1.07746 -1.3319,-1.95902 -2.04099,-1.95902 -1.43812,0 -1.76665,4.10591 -0.43506,5.4375 1.37227,1.37225 3.29884,-1.33431 2.47605,-3.47848 z m 31.28759,-6.37352 c -5.21576,-4.58862 -8.1357,-3.91335 -3.79906,0.87857 1.1378,1.25726 3.24717,2.26815 4.6875,2.24643 2.426,-0.0366 2.36061,-0.26662 -0.88844,-3.125 z m -57.72801,-11.61391 c -0.75149,-1.95016 -0.89198,-1.94685 -2.01162,0.0474 -0.81903,1.45883 -0.6923,2.97247 0.39657,4.73646 l 1.60026,2.59246 0.41135,-2.63986 c 0.22624,-1.45193 0.0478,-3.58333 -0.39656,-4.73646 z m -7.99917,1.91903 c -1.02083,-1.02083 -1.39062,-0.88094 -1.39062,0.52605 0,2.48482 1.68088,4.16569 2.30208,2.30208 0.26354,-0.79063 -0.14661,-2.06328 -0.91146,-2.82813 z m 45.13879,-3.48581 c -0.42902,-3.65561 -3.60709,-8.65481 -5.50196,-8.65481 -0.81488,0 -0.5376,0.96942 0.65381,2.28593 1.13781,1.25725 2.06874,4.11663 2.06874,6.35416 0,2.71697 0.51899,3.88408 1.5625,3.51379 0.85937,-0.30495 1.40699,-1.87954 1.21691,-3.49907 z m 44.72059,1.34519 c 0,-0.6875 -0.5625,-1.25 -1.25,-1.25 -0.6875,0 -1.25,0.5625 -1.25,1.25 0,0.6875 0.5625,1.25 1.25,1.25 0.6875,0 1.25,-0.5625 1.25,-1.25 z m -80,-3.75 c 0,-0.6875 -0.5625,-1.25 -1.25,-1.25 -0.6875,0 -1.25,0.5625 -1.25,1.25 0,0.6875 0.5625,1.25 1.25,1.25 0.6875,0 1.25,-0.5625 1.25,-1.25 z m 11.25,-4.05068 c 0,-1.91764 -2.45188,-0.87488 -3.78059,1.60784 -1.26394,2.3617 -1.17175,2.43426 1.20602,0.94932 1.41601,-0.88432 2.57457,-2.03504 2.57457,-2.55716 z m 10.75,-4.19932 c -0.44486,-1.1593 -1.0901,-1.82657 -1.43385,-1.48282 -0.34375,0.34375 -0.26101,1.57352 0.18385,2.73282 0.44486,1.1593 1.0901,1.82657 1.43385,1.48282 0.34375,-0.34375 0.26101,-1.57352 -0.18385,-2.73282 z m -1.97516,-3.64068 c 5.60203,-3.53641 6.37263,-5.60932 2.08523,-5.60932 -1.7528,0 -3.96612,1.45563 -5.625,3.69938 -4.48546,6.06692 -3.70899,6.48588 3.53977,1.90994 z m 106.44292,206.0742 c -1.38048,-2.4668 0.6344,-9.57695 2.404,-8.48327 1.49196,0.92209 1.45544,8.94999 -0.0449,9.87727 -0.64525,0.39878 -1.70683,-0.22852 -2.35906,-1.394 z m -44.90526,-8.20913 c -3.42411,-1.65139 -3.66458,-3.47439 -0.45829,-3.47439 1.30295,0 2.64614,1.11635 3.00798,2.5 0.35957,1.375 0.5658,2.46193 0.45828,2.4154 -0.1075,-0.0465 -1.4611,-0.69499 -3.00797,-1.44101 z m 7.1875,-0.87023 c 0,-1.53541 0.80711,-2.60416 1.96665,-2.60416 1.16405,0 1.80172,0.85046 1.5625,2.08391 -0.60819,3.13596 -3.52915,3.56656 -3.52915,0.52025 z m -116.0861,-0.53167 c -0.76572,-0.92263 -1.02209,-2.04763 -0.56972,-2.5 1.22498,-1.22499 9.50658,-0.95765 11.61346,0.37488 1.46719,0.92794 1.13937,1.42268 -1.64387,2.48085 -4.67923,1.77905 -7.72378,1.66383 -9.39987,-0.35573 z m 139.44369,-0.8432 c -1.93459,-0.5807 -4.18459,-1.57574 -5,-2.21119 -0.81543,-0.63545 -3.45134,-1.86165 -5.85759,-2.72489 -8.61443,-3.0904 -13.85965,-3.54326 -21.07015,-1.81915 -10.00868,2.39318 -12.9546,2.18758 -19.11476,-1.334 -3.10889,-1.77726 -7.44879,-3.1164 -10.12759,-3.125 -2.57813,-0.009 -4.6875,-0.59521 -4.6875,-1.30429 0,-2.2202 3.90026,-2.90866 8.02609,-1.41673 3.90073,1.41052 8.58295,0.62762 14.78685,-2.47247 1.20337,-0.60132 5.2815,-0.72972 9.0625,-0.28533 4.63033,0.5442 6.87456,0.36221 6.87456,-0.5575 0,-0.751 2.10937,-1.74169 4.6875,-2.20154 2.57812,-0.45984 5.8125,-1.83543 7.1875,-3.05685 1.375,-1.22143 3.625,-2.4728 5,-2.78083 1.95496,-0.43795 1.20552,-1.1592 -3.4375,-3.30827 -6.72386,-3.11221 -7.52099,-5.70785 -3.04444,-9.91336 3.58004,-3.36327 3.54429,-3.3644 7.4285,0.23536 3.77144,3.49526 7.80236,10.79675 5.96054,10.79675 -2.60416,0 -1.17388,2.29322 2.1554,3.45582 1.89062,0.66022 5.26562,2.90968 7.5,4.9988 3.7087,3.4676 4.0625,4.45067 4.0625,11.28815 0,9.14054 -1.64223,10.36308 -10.39241,7.73652 z m -4.49508,-52.57068 c -1.65687,-1.37952 -3.90219,-3.00612 -4.98959,-3.61466 -2.73502,-1.5306 -1.59527,-2.27209 4.64952,-3.0248 5.95657,-0.71798 7.3251,0.68384 5.96355,6.10865 -0.93877,3.74035 -1.68417,3.81071 -5.62348,0.53081 z"
         id="path3387"
         inkscape:connector-curvature="0" />
    </g>
  </g>
</svg>
